<?xml version="1.0" encoding="UTF-8"?>
<svg version="1.1" xmlns="http://www.w3.org/2000/svg" width="900" height="900">
<path d="M0 0 C1.08867371 0.00031723 1.08867371 0.00031723 2.19934082 0.00064087 C13.204677 0.03262431 23.27180818 0.73873252 33.75 4.375 C34.83796875 4.725625 35.9259375 5.07625 37.046875 5.4375 C69.86583179 16.964158 94.24000647 39.2269839 110.75 69.375 C111.0912793 69.9947168 111.43255859 70.61443359 111.78417969 71.25292969 C127.41964132 100.29449047 130.62125767 133.32597156 133.19949341 165.62341309 C133.63208152 171.01925992 134.10809228 176.41018837 134.6015625 181.80078125 C134.81251225 184.13571683 135.02281895 186.47070937 135.23287964 188.8057251 C135.36659414 190.28047342 135.50219452 191.75505229 135.6399231 193.22943115 C138.45955751 223.54258375 138.45955751 223.54258375 130.75 234.375 C127.7298505 237.6728644 124.66459912 240.50347997 120.5703125 242.3671875 C118.39856716 243.30129975 118.39856716 243.30129975 117.75 246.375 C110.34462157 249.43374327 102.11462379 249.50081535 94.5625 246.875 C89.14838458 244.42105862 85.48206325 240.94176126 81.75 236.375 C80.89728516 235.38306641 80.89728516 235.38306641 80.02734375 234.37109375 C76.17352716 229.07801396 75.08296372 223.78920262 74.2421875 217.453125 C74.05626793 216.09937523 74.05626793 216.09937523 73.86659241 214.71827698 C72.20394881 201.98116007 71.31175361 189.16251601 70.34277344 176.35797119 C69.88205282 170.28873765 69.40723609 164.22057969 68.93359375 158.15234375 C68.83412445 156.87169037 68.73465515 155.59103699 68.63217163 154.27157593 C67.82073531 143.95624485 66.85102431 133.66319734 65.75 123.375 C65.09 123.375 64.43 123.375 63.75 123.375 C63.60304688 122.65957031 63.45609375 121.94414062 63.3046875 121.20703125 C61.25343665 112.09429041 58.03912976 103.56914609 53.0234375 95.6484375 C51.75 93.375 51.75 93.375 52.375 90.9375 C53.02651821 88.41953695 53.02651821 88.41953695 51.71484375 86.7265625 C50.45030497 85.22602344 49.10414441 83.79520024 47.75 82.375 C48.08 83.695 48.41 85.015 48.75 86.375 C45.35160211 85.80124451 43.90073521 84.80019574 41.625 82.25 C32.85202845 73.16038192 20.26893313 65.40698566 7.3671875 65.13671875 C-18.13519093 64.70916596 -41.78468034 69.65312309 -61.25 87.375 C-65.04257347 91.43966146 -68.17026402 95.77184009 -71.25 100.375 C-71.72147461 101.05675293 -72.19294922 101.73850586 -72.67871094 102.44091797 C-80.23773721 113.42044051 -85.93471143 124.71606638 -90.99609375 137.03515625 C-94.23471131 144.83631442 -97.49958766 152.19122628 -103.125 158.5625 C-103.92679687 159.50480469 -104.72859375 160.44710937 -105.5546875 161.41796875 C-108.25 163.375 -108.25 163.375 -111.7109375 163.35546875 C-115.15334834 162.40177657 -117.88497795 161.22961169 -121 159.5 C-139.66500258 149.78301364 -161.81689155 150.58787574 -181.5625 156.6875 C-194.16417649 160.78582619 -204.35870595 167.13961643 -214.3125 175.875 C-217.25 178.375 -217.25 178.375 -219.25 178.375 C-219.4975 179.2 -219.745 180.025 -220 180.875 C-222.04445543 186.5994752 -224.63051245 191.57142342 -228.1875 196.5 C-235.91605261 207.89766345 -240.09256474 224.61310919 -239.25 238.375 C-238.51700684 238.6330542 -237.78401367 238.8911084 -237.02880859 239.15698242 C-234.16082114 240.4140892 -232.2108041 241.89669337 -229.7890625 243.86328125 C-223.71391101 248.20219355 -217.92026866 248.84558102 -210.625 249.5625 C-208.12819563 249.86529047 -205.63208394 250.17385054 -203.13671875 250.48828125 C-201.9461084 250.63475098 -200.75549805 250.7812207 -199.52880859 250.93212891 C-176.30880616 254.06847175 -155.18318968 264.64774367 -137.25 279.375 C-136.57453125 279.88546875 -135.8990625 280.3959375 -135.203125 280.921875 C-124.53125784 289.24397324 -113.79101925 305.34660851 -110.4453125 318.55078125 C-109.97153668 328.17957808 -115.0395236 337.33021076 -120.625 344.8515625 C-126.11147194 349.99512995 -136.13843344 350.41645532 -143.3125 350.8125 C-151.11887074 350.50660773 -156.36306767 347.49294759 -161.6875 341.8671875 C-163.59487939 339.79110943 -165.48355502 337.69895239 -167.37207031 335.60571289 C-183.69553804 317.73995047 -205.8959152 307.84536732 -230.03515625 306.1015625 C-250.53511083 305.40906168 -276.10563571 310.74123672 -291.671875 324.875 C-292.94804687 326.1125 -292.94804687 326.1125 -294.25 327.375 C-295.25421269 328.29275729 -296.25946319 329.20938 -297.265625 330.125 C-319.74029674 351.05334654 -327.22624715 378.62747843 -329.25 408.375 C-329.91 408.375 -330.57 408.375 -331.25 408.375 C-330.92 409.695 -330.59 411.015 -330.25 412.375 C-329.59 412.375 -328.93 412.375 -328.25 412.375 C-328.18006836 413.01300537 -328.11013672 413.65101074 -328.03808594 414.30834961 C-326.55551642 427.58116045 -324.6790377 440.46204722 -321.25 453.375 C-320.91466954 454.70783246 -320.58016157 456.04087773 -320.25 457.375 C-319.59 457.375 -318.93 457.375 -318.25 457.375 C-317.75371094 458.39078125 -317.25742187 459.4065625 -316.74609375 460.453125 C-314.61924633 464.78021403 -312.4444162 469.08183971 -310.25 473.375 C-309.69957031 474.45652344 -309.14914062 475.53804687 -308.58203125 476.65234375 C-294.15214028 503.19621726 -265.69943454 520.78391517 -237.52734375 529.24609375 C-212.56876579 536.15414891 -186.51855046 529.46292463 -164.37329102 517.31201172 C-159.67992833 514.62877937 -155.21112118 511.701546 -150.8125 508.5625 C-143.44463612 503.32366172 -137.29821962 501.2185562 -128.25 502.375 C-119.76380057 504.92871742 -113.76474999 509.8119699 -109.25 517.375 C-107.47080632 521.52645191 -107.03564869 524.87362243 -107.25 529.375 C-106.59 529.375 -105.93 529.375 -105.25 529.375 C-103.33587665 535.98742611 -105.36734827 541.73974814 -108.4375 547.66796875 C-123.33436047 571.57912264 -151.54564903 582.18943406 -177.7265625 588.41015625 C-204.0776341 594.22930464 -231.63600702 592.60657686 -257.25 584.375 C-248.92975228 617.55810563 -235.25926405 642.95924917 -205.25 661.375 C-176.55326471 677.89635743 -142.30473553 679.92938198 -110.04272461 677.08691406 C-107.11290852 676.83026117 -104.18291318 676.5931925 -101.25 676.375 C-100.53150879 676.31884521 -99.81301758 676.26269043 -99.07275391 676.20483398 C-96.27014524 676.07744268 -94.56277508 676.18443889 -92.140625 677.66015625 C-88.41730878 681.69374882 -86.05496045 685.17246695 -84.25 690.375 C-83.59 690.375 -82.93 690.375 -82.25 690.375 C-81.94932617 691.01824219 -81.64865234 691.66148437 -81.33886719 692.32421875 C-70.05654573 716.23625908 -56.56280835 739.9179918 -30.1953125 749.46484375 C-7.67323173 756.42458489 14.74639402 757.45500431 36.09350586 746.55615234 C50.07171489 739.07018403 59.58900844 726.40286623 64.75 711.484375 C67.59712453 701.68369632 67.91842764 691.89434296 68.06269836 681.75434875 C68.08323269 680.51768144 68.10376701 679.28101413 68.12492359 678.00687206 C68.17923067 674.62108013 68.22915545 671.23529016 68.27609394 667.84939216 C68.30621436 665.69415801 68.33778362 663.53894899 68.3696543 661.38374007 C68.80203126 631.85954511 68.8744197 602.3378696 68.85975176 572.81100088 C68.85425147 561.68764306 68.86121557 550.56434399 68.87532043 539.44099426 C68.87736561 537.78309749 68.87940795 536.12520071 68.88144749 534.46730393 C68.88559694 531.12252737 68.88981059 527.7777509 68.89405501 524.43297446 C68.90471187 515.98632316 68.91460897 507.53967136 68.9230957 499.09301758 C68.92437258 497.82952853 68.92437258 497.82952853 68.92567525 496.54051445 C68.93903568 482.74346717 68.93377701 468.94647694 68.92302414 455.14943012 C68.91238871 440.84129898 68.92455262 426.53331028 68.95710641 412.22521192 C68.97626533 403.46629984 68.97754517 394.70777125 68.95495013 385.94886557 C68.94118834 379.98199385 68.94936891 374.01540322 68.97467472 368.0485703 C68.98856621 364.61760931 68.99294636 361.18735978 68.97084999 357.75642586 C68.95195377 354.03028786 68.97013188 350.30604934 68.99723816 346.58000183 C68.98296994 345.51146396 68.96870172 344.4429261 68.95400113 343.34200829 C69.11284772 332.496198 73.85845166 323.63086072 81.1875 315.8125 C82.07308594 314.84183594 82.95867187 313.87117188 83.87109375 312.87109375 C89.92745734 307.62005395 95.73392647 306.81861989 103.4375 306.875 C104.31801025 306.87927002 105.19852051 306.88354004 106.10571289 306.88793945 C114.8442824 307.1149257 121.82356847 309.20043834 128.6875 314.75 C129.368125 315.61625 130.04875 316.4825 130.75 317.375 C131.19988281 317.86484375 131.64976562 318.3546875 132.11328125 318.859375 C138.72268045 326.67894588 136.86762643 338.50099021 136.68383789 348.13793945 C136.65402372 350.11328721 136.62421568 352.08863506 136.59456968 354.06398535 C136.56099716 356.23223794 136.52463789 358.40042885 136.48757744 360.5686245 C136.3611518 368.0013746 136.2553486 375.43444361 136.14664614 382.86746991 C136.10504263 385.701448 136.06277857 388.53541579 136.02049541 391.36938381 C135.64291532 416.88750265 135.36158691 442.40686626 135.06973209 467.92607843 C134.98781547 475.08617921 134.90508497 482.24627051 134.82229574 489.40636124 C134.67861497 501.83413392 134.53551114 514.26191316 134.39282227 526.68969727 C134.25447492 538.73918019 134.11582621 550.78865958 133.97680664 562.83813477 C133.96810838 563.59206236 133.95941011 564.34598995 133.95044827 565.12276383 C133.90677131 568.90834076 133.8630888 572.69391762 133.81940353 576.47949445 C133.46207503 607.44465309 133.10570953 638.40982272 132.75 669.375 C133.41688087 669.23928085 134.08376175 669.10356171 134.77085114 668.96372986 C135.65620293 668.78483719 136.54155472 668.60594452 137.45373535 668.42163086 C138.76343166 668.15617714 138.76343166 668.15617714 140.09958649 667.88536072 C144.16273308 667.10296567 148.24724569 666.51457525 152.34375 665.9375 C153.21592163 665.81189697 154.08809326 665.68629395 154.98669434 665.55688477 C158.666498 665.02703519 162.34719854 664.5035409 166.02783203 663.97949219 C168.73762897 663.5927211 171.44694106 663.20267252 174.15625 662.8125 C174.97009155 662.697854 175.78393311 662.58320801 176.62243652 662.46508789 C181.60016399 661.74783903 186.49954843 660.84430417 191.41149902 659.76196289 C193.897872 659.35053092 196.23419753 659.34915073 198.75 659.375 C198.7354606 658.29028475 198.72092119 657.2055695 198.7059412 656.08798409 C198.34492301 629.14870264 197.98577095 602.20939674 197.62835789 575.27006721 C197.45544565 562.24009239 197.28201095 549.21012498 197.10717773 536.18017578 C196.20049204 468.57945655 195.38600839 400.97882875 194.75 333.375 C194.73265058 331.53508629 194.71529876 329.69517261 194.69794464 327.85525894 C194.49963086 306.8136613 194.49963086 306.8136613 194.43612009 299.84337878 C194.4022677 296.13119651 194.36669328 292.4190459 194.32777596 288.70691299 C194.32035627 287.97055426 194.31293659 287.23419552 194.30529207 286.47552288 C194.28503738 284.46887706 194.26397252 282.46223947 194.24284649 280.45560265 C194.18959135 268.51565416 194.97690654 258.40079311 199.75 247.375 C200.19424316 246.26108887 200.63848633 245.14717773 201.09619141 243.99951172 C203.20366747 238.74910479 204.95661058 235.60091609 209.75 232.375 C224.55835591 226.7724666 243.09686785 226.13214463 258.75 226 C259.63872803 225.98622314 260.52745605 225.97244629 261.44311523 225.95825195 C269.46884595 226.01572639 276.50181938 228.09875858 282.75 233.375 C288.4373057 240.53013531 288.2938648 247.28384449 287.81835938 256.08886719 C287.76514239 257.44519224 287.71453784 258.80162192 287.66633606 260.15813446 C287.55888391 263.06016392 287.43602571 265.9609546 287.30085754 268.86182404 C286.97539713 275.88748009 286.73706455 282.91643947 286.48834133 289.9451499 C286.40189333 292.36612959 286.31244211 294.78698552 286.22266388 297.20784378 C285.66376751 312.51857513 285.47935291 327.81960495 285.40625 343.140625 C285.39134871 345.78205384 285.37641001 348.42348247 285.36143494 351.06491089 C285.33220719 356.4637305 285.30784276 361.86256006 285.28585815 367.26141357 C285.22840411 381.31031686 285.14015154 395.35905834 285.05008006 409.40778494 C285.0351462 411.74376031 285.0204715 414.07973723 285.00580025 416.41571426 C284.75547263 455.86269969 284.22905024 495.30611077 283.6875 534.75 C283.67589466 535.5953084 283.66428932 536.4406168 283.65233231 537.3115406 C283.58309136 542.35122482 283.51362547 547.3909059 283.44402397 552.43058515 C283.41053017 554.85670423 283.37710133 557.2828242 283.34368229 559.70894432 C283.25028295 566.48234964 283.15653656 573.25574747 283.0593704 580.02909994 C283.02995416 582.08604998 283.00092383 584.14300507 282.97203827 586.19996262 C282.9373634 588.66432092 282.90202095 591.12866998 282.86580658 593.59300613 C282.7600058 601.18748116 282.73114809 608.77982521 282.75 616.375 C284.21072532 614.77301112 285.66849716 613.16832884 287.125 611.5625 C287.93710937 610.66917969 288.74921875 609.77585937 289.5859375 608.85546875 C291.84072907 606.37867326 291.84072907 606.37867326 293.75 603.375 C294.41 603.375 295.07 603.375 295.75 603.375 C295.9975 602.79492188 296.245 602.21484375 296.5 601.6171875 C297.93839506 599.03706637 299.57536202 597.496007 301.75 595.5 C322.10226692 575.50650701 335.50122746 546.19808726 336.07519531 517.79443359 C336.10751125 516.4065457 336.10751125 516.4065457 336.14048004 514.99061966 C336.20860319 511.95998212 336.26917766 508.9292667 336.328125 505.8984375 C336.36012371 504.3229117 336.36012371 504.3229117 336.39276886 502.7155571 C336.78520606 483.03544348 336.79371754 463.37934581 336.53461838 443.69818115 C336.49904754 440.92576439 336.46673757 438.15332632 336.43533325 435.38085938 C335.81363981 380.73425409 334.78565954 326.0914042 333.81833494 271.45005727 C333.71692635 265.71037889 333.61647748 259.97068361 333.51602727 254.23098838 C333.43692156 249.71849789 333.3569936 245.2060251 333.27509117 240.69358444 C333.07976104 229.9209809 332.89819753 219.14836289 332.75 208.375 C332.73283558 207.15844727 332.71567116 205.94189453 332.6979866 204.68847656 C332.65772705 201.492814 332.63033778 198.29740398 332.60961914 195.1015625 C332.59269972 193.78776108 332.59269972 193.78776108 332.5754385 192.44741821 C332.54584579 180.24070768 335.26879453 167.28539689 342.75 157.375 C346.69263648 153.42529786 350.55258886 152.3616589 355.9375 151.625 C356.79883545 151.50576172 357.6601709 151.38652344 358.54760742 151.26367188 C368.23015515 150.13975455 377.96950635 149.99240364 387.70718384 149.90222168 C389.60210754 149.88415608 391.49697542 149.85858996 393.39169312 149.82531738 C396.10160691 149.7833562 398.8093377 149.77714886 401.51953125 149.78125 C402.33040192 149.76499573 403.14127258 149.74874146 403.97671509 149.73199463 C411.02049724 149.81548764 415.70927285 152.54775843 420.80859375 157.2890625 C421.26363281 157.85367188 421.71867188 158.41828125 422.1875 159 C422.66058594 159.56976563 423.13367188 160.13953125 423.62109375 160.7265625 C425.87915024 164.02379377 425.87834317 167.00177894 425.8886652 170.86664104 C425.89413964 172.01516794 425.89961409 173.16369483 425.90525442 174.34702557 C425.90672158 176.24826435 425.90672158 176.24826435 425.90821838 178.18791199 C425.91278295 179.54343716 425.91778282 180.89896093 425.92318195 182.25448304 C425.93678442 185.98741813 425.94418751 189.72034409 425.95060861 193.4532975 C425.9586033 197.47578814 425.97230428 201.49825974 425.98532104 205.52073669 C426.00709702 212.49263603 426.02523741 219.46453728 426.04092598 226.43645287 C426.0636144 236.51673933 426.09175865 246.59700471 426.12124526 256.67727331 C426.16893378 273.03085194 426.21219455 289.38443919 426.25268555 305.73803711 C426.29203406 321.62639028 426.33345874 337.5147358 426.37768555 353.40307617 C426.38040982 354.38202255 426.38313409 355.36096893 426.38594092 356.36958035 C426.39962029 361.28054391 426.41334058 366.19150736 426.42708123 371.10247076 C426.5410658 411.85996456 426.64787078 452.61747487 426.75 493.375 C426.09 493.375 425.43 493.375 424.75 493.375 C425.08 494.035 425.41 494.695 425.75 495.375 C425.98333333 501.90833333 425.98333333 501.90833333 424.75 504.375 C425.41 504.375 426.07 504.375 426.75 504.375 C426.75 505.365 426.75 506.355 426.75 507.375 C426.09 507.375 425.43 507.375 424.75 507.375 C424.64042969 508.30957031 424.53085937 509.24414062 424.41796875 510.20703125 C423.98909465 513.80094055 423.53156852 517.39068369 423.06201172 520.97949219 C422.8561129 522.56030535 422.65452283 524.14168646 422.45751953 525.72363281 C420.95174816 537.60661672 418.24538339 548.2792521 413.75 559.375 C413.42225586 560.19758301 413.09451172 561.02016602 412.75683594 561.86767578 C406.22148109 578.14504186 398.78073488 593.81124256 387.890625 607.65234375 C385.78357919 610.3322907 383.82934943 613.08250477 381.875 615.875 C377.30859368 622.1549301 372.13229421 627.79822361 366.75 633.375 C366.15171387 633.9952002 365.55342773 634.61540039 364.93701172 635.25439453 C352.01706551 648.57075944 352.01706551 648.57075944 344.96484375 653.71875 C342.24170247 655.75510256 339.70225627 657.9696221 337.125 660.1875 C277.98475251 710.07971134 196.50420152 725.69109492 121.75 732.375 C121.38648438 733.31859375 121.02296875 734.2621875 120.6484375 735.234375 C113.4670434 753.67080539 104.509331 769.10981124 90.75 783.375 C90.0590625 784.12910156 89.368125 784.88320313 88.65625 785.66015625 C70.69765519 804.75956343 41.21597438 813.6065971 15.67822266 814.54345703 C-17.26146009 815.51031585 -46.30752551 812.32132321 -75.25 795.375 C-76.80654297 794.49521484 -76.80654297 794.49521484 -78.39453125 793.59765625 C-87.6356829 788.10466401 -94.64806799 780.44619179 -101.578125 772.328125 C-102.7780358 770.92636005 -103.99946998 769.54291128 -105.234375 768.171875 C-105.87890625 767.45515625 -106.5234375 766.7384375 -107.1875 766 C-107.77402344 765.35289062 -108.36054688 764.70578125 -108.96484375 764.0390625 C-110.25 762.375 -110.25 762.375 -110.25 760.375 C-110.85303955 760.28653809 -111.4560791 760.19807617 -112.07739258 760.10693359 C-114.85043683 759.17271777 -115.46639374 758.11602031 -117.01171875 755.6640625 C-117.49060547 754.91382813 -117.96949219 754.16359375 -118.46289062 753.390625 C-118.94951172 752.60171875 -119.43613281 751.8128125 -119.9375 751 C-120.43572266 750.21882812 -120.93394531 749.43765625 -121.44726562 748.6328125 C-123.39354184 745.54834762 -125.09204076 742.84887771 -126.25 739.375 C-127.1886792 739.31030518 -128.1273584 739.24561035 -129.09448242 739.17895508 C-156.1749519 737.27643494 -183.30304777 734.87735708 -209.25 726.375 C-209.98766602 726.14119629 -210.72533203 725.90739258 -211.48535156 725.66650391 C-228.87866154 720.07395384 -246.72522006 711.86136051 -260.25 699.375 C-261.08273437 698.64667969 -261.91546875 697.91835938 -262.7734375 697.16796875 C-265.301618 694.93967753 -267.78357797 692.67132396 -270.25 690.375 C-271.31927734 689.38693359 -271.31927734 689.38693359 -272.41015625 688.37890625 C-279.50030518 681.58930314 -285.80584438 673.31080651 -289.5625 664.1875 C-290.77952909 661.25157416 -292.26154786 658.63714183 -293.9375 655.9375 C-310.61083834 628.45125412 -318.04529795 598.36471293 -318.25 566.375 C-317.26 566.045 -316.27 565.715 -315.25 565.375 C-314.07607227 562.71463228 -314.07607227 562.71463228 -314.25 559.375 C-316.40964413 556.72364395 -319.13553131 554.834352 -321.875 552.8125 C-323.45467709 551.57952529 -325.0301528 550.34115048 -326.6015625 549.09765625 C-327.38950195 548.47648926 -328.17744141 547.85532227 -328.98925781 547.21533203 C-338.50046209 539.47284198 -346.18389928 530.356663 -353.25 520.375 C-354.03761719 519.34375 -354.82523438 518.3125 -355.63671875 517.25 C-384.49235146 479.20888547 -394.15689505 428.23038636 -388.67724609 381.48144531 C-387.46243092 372.64869776 -385.51291371 363.99285856 -383.25 355.375 C-383.07130371 354.68825195 -382.89260742 354.00150391 -382.70849609 353.29394531 C-378.31213601 337.0657705 -370.1953109 319.90817622 -360.25 306.375 C-359.67910645 305.59068604 -359.67910645 305.59068604 -359.09667969 304.79052734 C-346.37420507 287.4708146 -331.26132511 274.3496764 -313.1875 262.8125 C-312.36556152 262.28712646 -311.54362305 261.76175293 -310.69677734 261.22045898 C-309.91898926 260.73391846 -309.14120117 260.24737793 -308.33984375 259.74609375 C-307.64753662 259.31224365 -306.95522949 258.87839355 -306.24194336 258.43139648 C-304.24470547 257.37219213 -302.45834259 256.82037742 -300.25 256.375 C-300.27618408 255.38508057 -300.30236816 254.39516113 -300.3293457 253.37524414 C-300.94028286 227.99737884 -300.27767815 204.16559459 -290.25 180.375 C-289.74319571 179.10949265 -289.23669996 177.84386171 -288.73046875 176.578125 C-275.35435457 143.89875622 -250.2404984 116.15804181 -217.3125 102.3125 C-190.86894314 91.9923103 -164.51543819 88.55552922 -136.25 89.375 C-135.8375 88.50359375 -135.425 87.6321875 -135 86.734375 C-128.41403227 73.05165944 -119.93097634 61.03275447 -110.25 49.375 C-109.79141602 48.82166992 -109.33283203 48.26833984 -108.86035156 47.69824219 C-82.09257076 15.90559922 -40.95874933 -0.11060758 0 0 Z M36.75 72.375 C37.74 73.695 38.73 75.015 39.75 76.375 C40.74 76.045 41.73 75.715 42.75 75.375 C40.07752366 73.03212582 40.07752366 73.03212582 36.75 72.375 Z M53.75 89.375 C54.75 91.375 54.75 91.375 54.75 91.375 Z M56.75 94.375 C57.75 96.375 57.75 96.375 57.75 96.375 Z M57.75 96.375 C58.75 98.375 58.75 98.375 58.75 98.375 Z M-316.25 568.375 C-315.25 570.375 -315.25 570.375 -315.25 570.375 Z " fill="#0DB165" transform="translate(432.25,43.625)"/>
<path d="M0 0 C3.80435407 2.70309368 5.59505645 4.55635652 7 9 C7.24839699 11.58307344 7.24839699 11.58307344 7.24609566 14.39415455 C7.25007775 15.47002884 7.25405985 16.54590313 7.25816262 17.65437967 C7.25233693 18.83044564 7.24651125 20.00651161 7.24050903 21.21821594 C7.24307231 23.09897466 7.24307231 23.09897466 7.24568737 25.01772851 C7.25015884 28.49535963 7.24216 31.97286754 7.23213124 35.45048296 C7.22349616 39.20162299 7.22641695 42.95275603 7.22793579 46.7039032 C7.2289846 53.20215311 7.22270837 59.70036287 7.21146011 66.19860268 C7.1952076 75.59396648 7.18999736 84.98931087 7.18748413 94.38468721 C7.18310664 109.6279698 7.16979606 124.87123098 7.15087891 140.11450195 C7.13252152 154.92211805 7.11836432 169.72972834 7.10986328 184.53735352 C7.10933783 185.45006054 7.10881239 186.36276757 7.10827102 187.30313239 C7.10566095 191.88190499 7.10313353 196.46067762 7.10064721 201.03945029 C7.07991302 239.02631518 7.04468601 277.01315618 7 315 C6.67 315 6.34 315 6 315 C5.99576806 314.02305302 5.99153612 313.04610603 5.98717594 312.0395546 C5.8832497 288.09286562 5.7744191 264.14620259 5.66066074 240.19955826 C5.60575412 228.61839933 5.55235006 217.03723738 5.50268555 205.45605469 C5.4593139 195.34323536 5.41291718 185.23043483 5.36312145 175.11764503 C5.33693815 169.77999755 5.3121103 164.44235277 5.29092598 159.10468292 C5.20519377 137.72578852 5.06980209 116.36134602 4.31967258 94.99370956 C3.73667398 77.87076585 4.2823116 60.74969284 4.74414062 43.62866211 C4.84121993 39.99527109 4.92207594 36.36179278 4.9935112 32.72781181 C5.0373082 30.73978699 5.09916514 28.75218502 5.16177368 26.7646637 C5.32175798 18.42156158 4.25927505 11.03264457 2 3 C1.34 3 0.68 3 0 3 C0 2.01 0 1.02 0 0 Z " fill="#0F933B" transform="translate(851,200)"/>
<path d="M0 0 C-0.33 0.66 -0.66 1.32 -1 2 C-3.30078125 2.45703125 -3.30078125 2.45703125 -6.3125 2.8125 C-13.08732427 3.82306448 -18.79779258 6.19145324 -25 9 C-25.84433594 9.33644531 -26.68867188 9.67289063 -27.55859375 10.01953125 C-36.67373625 13.68017248 -45.44599638 18.6714349 -53.1953125 24.7109375 C-55 26 -55 26 -57 26 C-57.226875 26.598125 -57.45375 27.19625 -57.6875 27.8125 C-59.36932121 30.61553535 -61.16700677 31.39034476 -64 33 C-68.32434024 36.29025888 -71.75840538 39.88449443 -75.26953125 44.0234375 C-76.83511246 45.81166344 -78.45917097 47.43430086 -80.1875 49.0625 C-82.67128693 51.49385871 -84.30098173 54.05300728 -85.93359375 57.140625 C-87.15774012 59.27503406 -88.56779374 61.17123163 -90.0625 63.125 C-92.78951836 66.6905765 -95.10497785 70.28380242 -97.18359375 74.26953125 C-97.83521484 75.49736328 -97.83521484 75.49736328 -98.5 76.75 C-99.10328125 77.91789062 -99.10328125 77.91789062 -99.71875 79.109375 C-101 81 -101 81 -104 82 C-98.32593712 66.9146309 -87.65223682 53.40497378 -76.640625 41.81640625 C-74.71719357 39.76493575 -72.94103922 37.71951824 -71.1640625 35.55078125 C-67.87863315 31.69481879 -64.16166172 28.66459883 -60.125 25.625 C-59.3825 25.06409668 -58.64 24.50319336 -57.875 23.92529297 C-45.5915948 14.8298478 -16.00364278 -5.33454759 0 0 Z " fill="#30CF4D" transform="translate(403,49)"/>
<path d="M0 0 C0 0.66 0 1.32 0 2 C-1.41152344 1.96519531 -1.41152344 1.96519531 -2.8515625 1.9296875 C-4.09679687 1.91164062 -5.34203125 1.89359375 -6.625 1.875 C-8.46964844 1.84019531 -8.46964844 1.84019531 -10.3515625 1.8046875 C-13.91682505 1.82013306 -13.91682505 1.82013306 -16.76953125 2.99609375 C-21.52389904 4.47356959 -26.1158369 4.24953736 -31.0625 4.1875 C-32.04283203 4.18685547 -33.02316406 4.18621094 -34.03320312 4.18554688 C-41.33727193 4.14091916 -41.33727193 4.14091916 -44.57763672 3.4519043 C-48.24473437 2.76778842 -51.51268552 3.73347922 -55.0625 4.625 C-56.12307617 4.85509766 -56.12307617 4.85509766 -57.20507812 5.08984375 C-60.69614485 5.94867895 -62.81374366 6.8176872 -65.3984375 9.34765625 C-66.92855639 11.88168242 -67.82946075 13.95871828 -68.5625 16.8125 C-69.43494738 20.02577613 -70.38115861 23.09892766 -71.625 26.1875 C-73.00893291 29.75847714 -73.51575263 33.19519926 -74 37 C-74.59284336 39.36211025 -75.28674805 41.67004361 -76 44 C-76.33 44 -76.66 44 -77 44 C-77.90339107 31.57837276 -74.56716167 17.02426357 -67 7 C-63.04331798 3.02911086 -59.15531372 1.98919286 -53.75 1.25 C-52.46283081 1.06570435 -52.46283081 1.06570435 -51.1496582 0.87768555 C-34.27627274 -1.14194146 -16.96150642 -0.23539205 0 0 Z " fill="#55D272" transform="translate(843,195)"/>
<path d="M0 0 C1.0725 -0.04576172 2.145 -0.09152344 3.25 -0.13867188 C11.11124929 -0.24865286 16.63649603 1.18503258 22.625 6.4375 C27.29303312 11.37819093 28.00495523 16.48019645 27.89453125 23.09765625 C27.79053673 25.90218718 27.61746726 28.69947927 27.4375 31.5 C27.36406379 32.95235104 27.29308015 34.40482827 27.22460938 35.85742188 C27.05299491 39.38601784 26.84824551 42.91174959 26.625 46.4375 C25.965 46.4375 25.305 46.4375 24.625 46.4375 C24.625 48.0875 24.625 49.7375 24.625 51.4375 C24.295 51.4375 23.965 51.4375 23.625 51.4375 C23.59612186 47.95835059 23.57824313 44.47923169 23.5625 41 C23.55412109 40.00677734 23.54574219 39.01355469 23.53710938 37.99023438 C23.53388672 37.04599609 23.53066406 36.10175781 23.52734375 35.12890625 C23.52210693 34.25435791 23.51687012 33.37980957 23.51147461 32.47875977 C23.625 30.4375 23.625 30.4375 24.625 29.4375 C24.72522387 27.37701522 24.75466196 25.31291556 24.75 23.25 C24.75257813 22.12207031 24.75515625 20.99414062 24.7578125 19.83203125 C24.63188006 16.61334633 24.22922627 13.59769928 23.625 10.4375 C22.573125 10.14875 21.52125 9.86 20.4375 9.5625 C17.3916303 8.66371878 14.54897491 7.65582288 11.625 6.4375 C10.635 6.1075 9.645 5.7775 8.625 5.4375 C8.955 4.7775 9.285 4.1175 9.625 3.4375 C8.96491943 3.44273682 8.30483887 3.44797363 7.62475586 3.45336914 C4.60401378 3.47428951 1.583287 3.4872078 -1.4375 3.5 C-2.47583984 3.50837891 -3.51417969 3.51675781 -4.58398438 3.52539062 C-9.96223069 3.54246442 -15.07833211 3.39165152 -20.375 2.4375 C-20.375 2.1075 -20.375 1.7775 -20.375 1.4375 C-13.58136545 0.44230656 -6.86216506 0.11873675 0 0 Z " fill="#4AA162" transform="translate(692.375,270.5625)"/>
<path d="M0 0 C0.33 0 0.66 0 1 0 C1.93488387 21.31161333 2.12932787 42.5758274 2.06866455 63.9041748 C2.05819242 67.99535579 2.05381735 72.08654368 2.04882812 76.17773438 C2.03829636 84.11850749 2.02137125 92.05924866 2 100 C0.515 100.495 0.515 100.495 -1 101 C-1.02345213 91.37494818 -1.04107891 81.7499066 -1.05181217 72.12483215 C-1.05697063 67.65270967 -1.06393556 63.18060711 -1.07543945 58.70849609 C-1.12456784 39.11190441 -1.10272439 19.57304712 0 0 Z " fill="#047542" transform="translate(631,524)"/>
<path d="M0 0 C0.33 0 0.66 0 1 0 C1.62897252 18.72866034 2.1040261 37.44732024 2.125 56.1875 C2.12749756 56.98047485 2.12999512 57.77344971 2.13256836 58.5904541 C2.13838573 60.82467175 2.13701822 63.05875007 2.1328125 65.29296875 C2.13168457 66.5668042 2.13055664 67.84063965 2.12939453 69.15307617 C2 72 2 72 1 73 C0.84011509 75.51880517 0.74065775 78.01342266 0.68359375 80.53515625 C0.66281265 81.28840683 0.64203156 82.04165741 0.62062073 82.81773376 C0.55504575 85.2325599 0.49620379 87.64749798 0.4375 90.0625 C0.3943223 91.69597529 0.35070827 93.3294391 0.30664062 94.96289062 C0.19935638 98.97514464 0.09811179 102.98751164 0 107 C-0.33 107 -0.66 107 -1 107 C-1.02324437 94.82079092 -1.04097649 82.64158719 -1.05181217 70.46236038 C-1.05701464 64.80611636 -1.06406406 59.14988759 -1.07543945 53.49365234 C-1.08636245 48.02770591 -1.09229667 42.56177408 -1.09487724 37.09581757 C-1.09671461 35.01800049 -1.1003023 32.94018415 -1.10573006 30.86237335 C-1.1581055 9.96770102 -1.1581055 9.96770102 0 0 Z " fill="#056A3E" transform="translate(770,417)"/>
<path d="M0 0 C0.33 0 0.66 0 1 0 C1.06180584 8.89576587 1.10216581 17.79154948 1.125 26.6875 C1.12671204 27.34973698 1.12842407 28.01197395 1.13018799 28.69427872 C1.18755136 53.83888922 0.44283042 78.89436702 -1 104 C-1.33 104 -1.66 104 -2 104 C-2.097401 80.2881013 -2.1669356 56.58106201 -1.5625 32.875 C-1.54285187 32.0691748 -1.52320374 31.26334961 -1.50296021 30.43310547 C-1.24881016 20.26605841 -0.76072615 10.14239301 0 0 Z " fill="#11A84F" transform="translate(567,395)"/>
<path d="M0 0 C8.45862345 0.75187764 18.52114498 3.43629486 24.5625 9.625 C26.7909084 12.34893236 26.7909084 12.34893236 30 12 C32 12 32 12 33.8125 13.75 C34.534375 14.4925 35.25625 15.235 36 16 C36.886875 16.61875 37.77375 17.2375 38.6875 17.875 C41.54608061 20.5018038 41.7411038 22.20285568 42 26 C40.35 24.35 38.7 22.7 37 21 C37 21.33 37 21.66 37 22 C37 22.66 37 23.32 37 24 C33.60160211 23.42624451 32.15073521 22.42519574 29.875 19.875 C22.19058341 11.91381417 13.08545211 7.31556179 3 3 C3 2.34 3 1.68 3 1 C2.01 0.67 1.02 0.34 0 0 Z " fill="#20642B" transform="translate(444,106)"/>
<path d="M0 0 C1.80307617 0.00483398 1.80307617 0.00483398 3.64257812 0.00976562 C4.88845703 0.01814453 6.13433594 0.02652344 7.41796875 0.03515625 C8.68318359 0.03966797 9.94839844 0.04417969 11.25195312 0.04882812 C14.36983985 0.06059374 17.48763008 0.07703353 20.60546875 0.09765625 C20.60546875 0.75765625 20.60546875 1.41765625 20.60546875 2.09765625 C21.16234375 2.195625 21.71921875 2.29359375 22.29296875 2.39453125 C27.26686055 3.36914518 31.42708253 4.76787775 35.87890625 7.1953125 C37.7645426 8.23909903 37.7645426 8.23909903 40.60546875 9.09765625 C41.99123798 10.72098592 43.33188143 12.3849009 44.60546875 14.09765625 C39.0599382 13.39773492 34.60400028 10.66385637 29.75195312 8.06835938 C25.08965658 5.64574978 20.7484343 4.19766344 15.60546875 3.09765625 C15.60546875 3.75765625 15.60546875 4.41765625 15.60546875 5.09765625 C5.37546875 5.09765625 -4.85453125 5.09765625 -15.39453125 5.09765625 C-14.07453125 4.43765625 -12.75453125 3.77765625 -11.39453125 3.09765625 C-11.39453125 2.43765625 -11.39453125 1.77765625 -11.39453125 1.09765625 C-7.53246051 0.18948827 -3.96304469 -0.0187822 0 0 Z " fill="#2EC74B" transform="translate(431.39453125,103.90234375)"/>
<path d="M0 0 C0.66 0 1.32 0 2 0 C2.66 0.66 3.32 1.32 4 2 C4.639375 2.0825 5.27875 2.165 5.9375 2.25 C8 3 8 3 9.6875 5.625 C11.0684682 9.17606108 11.50510188 12.22640181 12 16 C12.501468 17.85949757 13.02381726 19.71344016 13.5625 21.5625 C14.67829992 25.49488224 15.33418689 28.87836164 15 33 C13.515 33.495 13.515 33.495 12 34 C11.77957031 32.92685547 11.77957031 32.92685547 11.5546875 31.83203125 C9.51526164 22.77182328 6.35147302 14.22116052 1.3125 6.37109375 C0 4 0 4 0 0 Z M5 5 C6 7 6 7 6 7 Z M6 7 C7 9 7 9 7 9 Z " fill="#195424" transform="translate(484,133)"/>
<path d="M0 0 C1.59671264 2.53595537 2.06525738 3.60845574 1.5625 6.625 C1.376875 7.40875 1.19125 8.1925 1 9 C1.33 9.66 1.66 10.32 2 11 C1.67282644 13.00101688 1.33828468 15.00083153 1 17 C0.9577427 19.39546064 0.95891994 21.79201888 1 24.1875 C1.11043566 30.66869301 1.11043566 30.66869301 0 34 C-0.11322825 35.4264314 -0.17595476 36.8572249 -0.20532227 38.2878418 C-0.2352401 39.57884041 -0.2352401 39.57884041 -0.26576233 40.8959198 C-0.28247482 41.82100845 -0.29918732 42.74609711 -0.31640625 43.69921875 C-0.33718735 44.64940384 -0.35796844 45.59958893 -0.37937927 46.5785675 C-0.44478052 49.61480456 -0.50371604 52.65112831 -0.5625 55.6875 C-0.60569417 57.74545169 -0.64930876 59.80339459 -0.69335938 61.86132812 C-0.80045231 66.90746316 -0.90174646 71.95368543 -1 77 C-1.33 77 -1.66 77 -2 77 C-2.04646624 68.14170068 -2.08194153 59.28344371 -2.10362434 50.42504883 C-2.11403422 46.31115393 -2.12814198 42.1973428 -2.15087891 38.08349609 C-2.17270748 34.10884789 -2.18458963 30.13427996 -2.18975449 26.15957642 C-2.19343234 24.64782448 -2.20061403 23.13607663 -2.21146011 21.62435913 C-2.31188082 7.03963711 -2.31188082 7.03963711 0 0 Z " fill="#4CCF75" transform="translate(630,300)"/>
<path d="M0 0 C0.33 0.99 0.66 1.98 1 3 C0.25234375 3.71285156 -0.4953125 4.42570312 -1.265625 5.16015625 C-6.37122273 10.0981307 -10.75031484 14.62098838 -14 21 C-14.99766409 22.39190232 -16.02007065 23.76629961 -17.0625 25.125 C-19.78951836 28.6905765 -22.10497785 32.28380242 -24.18359375 36.26953125 C-24.61800781 37.08808594 -25.05242187 37.90664062 -25.5 38.75 C-26.10328125 39.91789062 -26.10328125 39.91789062 -26.71875 41.109375 C-28 43 -28 43 -31 44 C-24.72785425 27.32453557 -12.47981428 12.47981428 0 0 Z " fill="#28C950" transform="translate(330,87)"/>
<path d="M0 0 C0.33 0 0.66 0 1 0 C1 16.17 1 32.34 1 49 C0.34 49 -0.32 49 -1 49 C-2.70704136 12.27345024 -2.70704136 12.27345024 0 0 Z " fill="#2AA36A" transform="translate(565,587)"/>
<path d="M0 0 C0.75 1.5625 0.75 1.5625 1 4 C0.12712801 5.67859998 -0.76431785 7.35079099 -1.7578125 8.9609375 C-6.18514176 16.22844025 -9.26625501 23.96676053 -12 32 C-12.66 31.67 -13.32 31.34 -14 31 C-12.31312946 21.75810291 -12.31312946 21.75810291 -10.8125 18.125 C-9.8611502 15.63685438 -10.08852993 14.46096919 -11 12 C-9.68 12 -8.36 12 -7 12 C-6.9175 10.88625 -6.835 9.7725 -6.75 8.625 C-6.5025 7.42875 -6.255 6.2325 -6 5 C-4.0625 3.75 -4.0625 3.75 -2 3 C-1.34 2.01 -0.68 1.02 0 0 Z " fill="#196E37" transform="translate(207,229)"/>
<path d="M0 0 C2.04224637 0.11514149 4.08380159 0.24257326 6.125 0.375 C7.26195312 0.44460938 8.39890625 0.51421875 9.5703125 0.5859375 C13 1 13 1 15.76757812 1.97265625 C19.27661076 3.08791375 22.48481729 3.50711957 26.1484375 3.8515625 C26.80582916 3.91532074 27.46322083 3.97907898 28.14053345 4.04476929 C30.21812497 4.24475946 32.29647038 4.43503464 34.375 4.625 C35.79303009 4.75977279 37.21099973 4.89518331 38.62890625 5.03125 C42.08526956 5.36154019 45.54237745 5.68313064 49 6 C49 6.33 49 6.66 49 7 C41.32905316 8.0021781 34.3905623 7.8789193 26.75 6.75 C25.75798584 6.61231201 24.76597168 6.47462402 23.74389648 6.33276367 C15.76252359 5.1927523 7.86929207 3.75287548 0 2 C0 1.34 0 0.68 0 0 Z " fill="#219869" transform="translate(242,773)"/>
<path d="M0 0 C0 0.66 0 1.32 0 2 C-11.7448744 4.8624487 -23.499847 7.38887196 -35.4375 9.3125 C-37.00745728 9.56918457 -37.00745728 9.56918457 -38.60913086 9.83105469 C-43.80344144 10.64112631 -48.74323953 11.19962382 -54 11 C-51.22876226 8.22876226 -49.26383853 8.55383986 -45.375 8.1875 C-37.98479001 7.39643527 -30.76959459 6.03580631 -23.5 4.5 C-22.48599121 4.28625732 -21.47198242 4.07251465 -20.42724609 3.85229492 C-16.10512706 2.92673799 -11.80674502 1.96596866 -7.53125 0.84375 C-4 0 -4 0 0 0 Z " fill="#1D935F" transform="translate(644,760)"/>
<path d="M0 0 C0.66 0 1.32 0 2 0 C2 5.28 2 10.56 2 16 C2.66 16 3.32 16 4 16 C4.36676073 19.0611278 4.71615254 22.12400085 5.0625 25.1875 C5.16626953 26.05181641 5.27003906 26.91613281 5.37695312 27.80664062 C5.85275032 32.08881539 6.24485649 35.79534487 5 40 C4.67 38.68 4.34 37.36 4 36 C3.34 36 2.68 36 2 36 C0.82364703 33.64729407 0.86640641 32.179248 0.875 29.5625 C0.87242188 28.78003906 0.86984375 27.99757813 0.8671875 27.19140625 C1 25 1 25 2 22 C1.34 22 0.68 22 0 22 C0 14.74 0 7.48 0 0 Z " fill="#225B41" transform="translate(100,440)"/>
<path d="M0 0 C0.33 0 0.66 0 1 0 C1.33 7.26 1.66 14.52 2 22 C1.34 22 0.68 22 0 22 C0.33 22.66 0.66 23.32 1 24 C1.23333333 30.53333333 1.23333333 30.53333333 0 33 C0.66 33 1.32 33 2 33 C2 33.99 2 34.98 2 36 C1.34 36 0.68 36 0 36 C-0.33 36.66 -0.66 37.32 -1 38 C-1 37.34 -1 36.68 -1 36 C-1.66 36 -2.32 36 -3 36 C-3 32.04 -3 28.08 -3 24 C-2.34 24 -1.68 24 -1 24 C-1.01160156 23.10539063 -1.02320313 22.21078125 -1.03515625 21.2890625 C-1.08867011 14.11820485 -0.91804983 7.11488616 0 0 Z " fill="#3D775D" transform="translate(857,515)"/>
<path d="M0 0 C0.66 0 1.32 0 2 0 C4.49241626 8.94486446 6.45329178 17.87224242 7.8125 27.0625 C7.94825439 27.94188232 8.08400879 28.82126465 8.22387695 29.72729492 C8.93010628 34.7710336 8.99738785 38.99949086 8 44 C7.67 44 7.34 44 7 44 C6.85900879 43.03175293 6.71801758 42.06350586 6.57275391 41.06591797 C6.04521924 37.45327843 5.51048348 33.84173463 4.97363281 30.23046875 C4.74284338 28.67118556 4.51397412 27.11161685 4.28710938 25.55175781 C3.95955034 23.30194447 3.62496249 21.05326879 3.2890625 18.8046875 C3.19001617 18.1138205 3.09096985 17.42295349 2.98892212 16.71115112 C2.37000337 12.62291999 1.34404308 8.90190074 0 5 C-0.125 2.125 -0.125 2.125 0 0 Z " fill="#23AB3A" transform="translate(554,147)"/>
<path d="M0 0 C10.75475261 4.57137135 17.79498468 18.65188347 24 28 C23.01 28.33 22.02 28.66 21 29 C19.27027535 26.64624159 17.54120809 24.29200485 15.8125 21.9375 C15.32974609 21.28072266 14.84699219 20.62394531 14.34960938 19.94726562 C13.86943359 19.29306641 13.38925781 18.63886719 12.89453125 17.96484375 C12.41153564 17.30734131 11.92854004 16.64983887 11.4309082 15.97241211 C10.04380851 14.06038713 8.6936551 12.125871 7.34375 10.1875 C5.5290088 7.71945197 4.08027549 5.89881607 1.6875 4.0625 C0.800625 3.381875 -0.08625 2.70125 -1 2 C-0.67 1.34 -0.34 0.68 0 0 Z " fill="#299C35" transform="translate(514,76)"/>
<path d="M0 0 C0.598125 0.45375 1.19625 0.9075 1.8125 1.375 C3.50590652 2.63295913 5.24477086 3.82984724 7 5 C7.26039063 5.72960937 7.52078125 6.45921875 7.7890625 7.2109375 C9.51170685 11.17857642 12.2927048 13.65133194 15.375 16.625 C15.9525 17.19734375 16.53 17.7696875 17.125 18.359375 C19.47584643 20.6672836 21.7553607 22.82028116 24.4140625 24.7734375 C24.93742187 25.17820312 25.46078125 25.58296875 26 26 C26 26.66 26 27.32 26 28 C22.07090256 26.37772349 19.24118754 23.68276408 16.1875 20.8125 C15.65777588 20.31927246 15.12805176 19.82604492 14.58227539 19.31787109 C13.04900857 17.88463559 11.5233028 16.44381258 10 15 C9.26265625 14.30519531 8.5253125 13.61039063 7.765625 12.89453125 C4.62139934 9.85108205 1.89369454 7.01017667 0 3 C0 2.01 0 1.02 0 0 Z " fill="#4E8B76" transform="translate(151,718)"/>
<path d="M0 0 C7.82279645 -0.23899916 15.37262228 0.49940241 23.125 1.5 C24.27226562 1.64308594 25.41953125 1.78617188 26.6015625 1.93359375 C29.40177471 2.28362028 32.20116048 2.6391896 35 3 C35 3.66 35 4.32 35 5 C28.14636302 5.2965516 21.56890918 4.68162896 14.79882812 3.71142578 C10.49746315 3.11235285 6.34068896 2.90992085 2 3 C2 2.34 2 1.68 2 1 C1.34 0.67 0.68 0.34 0 0 Z " fill="#4F8771" transform="translate(257,719)"/>
<path d="M0 0 C3.8040642 2.70288772 5.60027514 4.55407518 7 9 C7.24291992 11.67553711 7.24291992 11.67553711 7.23046875 14.52734375 C7.22853516 15.56697266 7.22660156 16.60660156 7.22460938 17.67773438 C7.21236328 18.75345703 7.20011719 19.82917969 7.1875 20.9375 C7.18685547 22.00935547 7.18621094 23.08121094 7.18554688 24.18554688 C7.1574761 29.22269096 7.07521071 34.05403071 6 39 C5.67 39 5.34 39 5 39 C5.01571045 38.37134033 5.0314209 37.74268066 5.04760742 37.0949707 C5.4710216 19.82456338 5.4710216 19.82456338 2 3 C1.34 3 0.68 3 0 3 C0 2.01 0 1.02 0 0 Z " fill="#13AE3A" transform="translate(851,200)"/>
<path d="M0 0 C0.94037109 -0.00386719 1.88074219 -0.00773437 2.84960938 -0.01171875 C3.75130859 -0.01042969 4.65300781 -0.00914062 5.58203125 -0.0078125 C6.39518799 -0.00668457 7.20834473 -0.00555664 8.04614258 -0.00439453 C10.1875 0.125 10.1875 0.125 13.1875 1.125 C12.8575 1.785 12.5275 2.445 12.1875 3.125 C8.33334948 3.15423559 4.47922785 3.17187777 0.625 3.1875 C-0.46103516 3.19587891 -1.54707031 3.20425781 -2.66601562 3.21289062 C-8.16082611 3.22959218 -13.40211935 3.11082259 -18.8125 2.125 C-18.8125 1.795 -18.8125 1.465 -18.8125 1.125 C-12.505757 0.19121667 -6.37060831 -0.02674853 0 0 Z " fill="#64BA7B" transform="translate(690.8125,270.875)"/>
<path d="M0 0 C1.14709734 3.37928676 0.84353618 5.38362393 -0.25 8.75 C-0.53101563 9.62785156 -0.81203125 10.50570312 -1.1015625 11.41015625 C-1.89351044 13.69303227 -2.73986164 15.93959911 -3.625 18.1875 C-5.00893291 21.75847714 -5.51575263 25.19519926 -6 29 C-6.59284336 31.36211025 -7.28674805 33.67004361 -8 36 C-8.33 36 -8.66 36 -9 36 C-9.8997731 23.62811984 -6.34951776 10.59120381 0 0 Z " fill="#3ACD64" transform="translate(775,203)"/>
<path d="M0 0 C2 2 2 2 2.0625 4.5625 C2.041875 5.366875 2.02125 6.17125 2 7 C2.33 7.33 2.66 7.66 3 8 C3.35481489 15.21456935 2.3416687 21.92030179 1 29 C0.67 29 0.34 29 0 29 C-0.82759975 22.85211616 -1.10817933 16.75811398 -1.125 10.5625 C-1.12951172 9.86447266 -1.13402344 9.16644531 -1.13867188 8.44726562 C-1.12964578 5.35733084 -0.98463341 2.95390023 0 0 Z " fill="#21973F" transform="translate(502,181)"/>
<path d="M0 0 C0 0.66 0 1.32 0 2 C0.99 2 1.98 2 3 2 C3 2.66 3 3.32 3 4 C-7.23 4 -17.46 4 -28 4 C-21.6948745 -2.3051255 -8.30450378 -0.18546038 0 0 Z " fill="#72CB81" transform="translate(444,105)"/>
<path d="M0 0 C0.99 0.33 1.98 0.66 3 1 C2.67 11.23 2.34 21.46 2 32 C1.34 32 0.68 32 0 32 C0 33.65 0 35.3 0 37 C-0.33 37 -0.66 37 -1 37 C-1.02887814 33.52085059 -1.04675687 30.04173169 -1.0625 26.5625 C-1.07087891 25.56927734 -1.07925781 24.57605469 -1.08789062 23.55273438 C-1.09111328 22.60849609 -1.09433594 21.66425781 -1.09765625 20.69140625 C-1.10289307 19.81685791 -1.10812988 18.94230957 -1.11352539 18.04125977 C-1 16 -1 16 0 15 C0.07313567 12.46950598 0.09247527 9.96695163 0.0625 7.4375 C0.05798828 6.72658203 0.05347656 6.01566406 0.04882812 5.28320312 C0.03700864 3.52209987 0.01907263 1.76103964 0 0 Z " fill="#3DB45F" transform="translate(717,285)"/>
<path d="M0 0 C0.66 0 1.32 0 2 0 C4.97 6.27 7.94 12.54 11 19 C10.34 19 9.68 19 9 19 C9 18.34 9 17.68 9 17 C8.01 16.67 7.02 16.34 6 16 C5.690625 15.030625 5.38125 14.06125 5.0625 13.0625 C4.711875 12.051875 4.36125 11.04125 4 10 C3.319375 9.690625 2.63875 9.38125 1.9375 9.0625 C1.298125 8.711875 0.65875 8.36125 0 8 C-0.8125 4.4375 -0.8125 4.4375 -1 1 C-0.67 0.67 -0.34 0.34 0 0 Z " fill="#265A46" transform="translate(348,734)"/>
<path d="M0 0 C0 0.33 0 0.66 0 1 C-0.9075 1.226875 -1.815 1.45375 -2.75 1.6875 C-7.47140477 3.59422116 -9.32277207 6.48822774 -11.37890625 11.078125 C-12.17169907 13.20270511 -12.96335541 15.32770963 -13.75390625 17.453125 C-14.16511719 18.29359375 -14.57632813 19.1340625 -15 20 C-15.99 20.33 -16.98 20.66 -18 21 C-15.96821021 13.48853471 -14.0079203 6.24538769 -8.625 0.4375 C-5.29979152 -1.3834475 -3.58375071 -1.00011648 0 0 Z " fill="#26C853" transform="translate(649,278)"/>
<path d="M0 0 C6.875 2.75 6.875 2.75 8 5 C-0.79705092 5.38064163 -9.31163005 4.20731692 -18 3 C-14.87186463 1.16801331 -12.60914709 0.75198077 -9 0.8125 C-8.154375 0.81894531 -7.30875 0.82539063 -6.4375 0.83203125 C-4.16747523 0.98845924 -2.18038396 1.36910186 0 2 C0 1.34 0 0.68 0 0 Z " fill="#1BA03C" transform="translate(843,195)"/>
<path d="M0 0 C0.33 0 0.66 0 1 0 C1 7.92 1 15.84 1 24 C3.64 24 6.28 24 9 24 C5.3558226 26.4294516 3.28758728 26.16179575 -1 26 C-1.02907084 22.41668375 -1.04682263 18.83339792 -1.0625 15.25 C-1.07087891 14.23421875 -1.07925781 13.2184375 -1.08789062 12.171875 C-1.09111328 11.1921875 -1.09433594 10.2125 -1.09765625 9.203125 C-1.10289307 8.30239258 -1.10812988 7.40166016 -1.11352539 6.47363281 C-1.00762312 4.16610196 -0.65132813 2.20865595 0 0 Z " fill="#2DA271" transform="translate(564,690)"/>
<path d="M0 0 C0.66 0 1.32 0 2 0 C2.66 0.66 3.32 1.32 4 2 C4.639375 2.0825 5.27875 2.165 5.9375 2.25 C8 3 8 3 9.8125 5.875 C11 9 11 9 10 12 C3.54533153 9.68606225 3.54533153 9.68606225 1.0625 6.5625 C0 4 0 4 0 0 Z M5 5 C6 7 6 7 6 7 Z M6 7 C7 9 7 9 7 9 Z " fill="#29983E" transform="translate(484,133)"/>
<path d="M0 0 C2.96175123 0.61277612 4.38058783 1.25372522 7 3 C7.33 2.34 7.66 1.68 8 1 C11.61139896 4.87564767 11.61139896 4.87564767 13 7 C12.8125 9.375 12.8125 9.375 12 11 C10.35 9.02 8.7 7.04 7 5 C7.33 6.32 7.66 7.64 8 9 C4.21304827 8.4590069 2.37254028 6.96567536 0 4 C0 2.68 0 1.36 0 0 Z " fill="#30A245" transform="translate(473,121)"/>
<path d="M0 0 C0.66 0 1.32 0 2 0 C2.99 8.91 3.98 17.82 5 27 C4.01 27 3.02 27 2 27 C1.47033504 22.68853608 0.9527451 18.37570902 0.4375 14.0625 C0.28603516 12.83080078 0.13457031 11.59910156 -0.02148438 10.33007812 C-0.16005859 9.16025391 -0.29863281 7.99042969 -0.44140625 6.78515625 C-0.57232666 5.70113525 -0.70324707 4.61711426 -0.83813477 3.50024414 C-0.89155029 2.67516357 -0.94496582 1.85008301 -1 1 C-0.67 0.67 -0.34 0.34 0 0 Z " fill="#22AB42" transform="translate(564,225)"/>
<path d="M0 0 C0.66 0 1.32 0 2 0 C2.33 1.32 2.66 2.64 3 4 C3.66 4 4.32 4 5 4 C5.84584998 5.55575978 6.67618399 7.1199612 7.5 8.6875 C8.19609375 9.99267578 8.19609375 9.99267578 8.90625 11.32421875 C10.04818792 14.11788829 10.21504208 16.01629113 10 19 C9.38125 18.175 8.7625 17.35 8.125 16.5 C7.42375 15.675 6.7225 14.85 6 14 C5.34 14 4.68 14 4 14 C4 12.02 4 10.04 4 8 C2.68 7.34 1.36 6.68 0 6 C0 4.02 0 2.04 0 0 Z " fill="#1F8059" transform="translate(109,497)"/>
<path d="M0 0 C-2.97382705 2.35253454 -6.02438054 4.16833539 -9.375 5.9375 C-12.53967381 7.63180467 -15.61266697 9.32832572 -18.5625 11.375 C-21 13 -21 13 -23 13 C-22.67 12.01 -22.34 11.02 -22 10 C-19.9375 9.3125 -19.9375 9.3125 -18 9 C-18 8.34 -18 7.68 -18 7 C-15.56876731 5.63336613 -13.13113837 4.2816133 -10.6875 2.9375 C-9.99720703 2.54755859 -9.30691406 2.15761719 -8.59570312 1.75585938 C-3.33984375 -1.11328125 -3.33984375 -1.11328125 0 0 Z " fill="#28B748" transform="translate(397,114)"/>
<path d="M0 0 C0.99 0.33 1.98 0.66 3 1 C-2 6 -7 11 -12 16 C-12.33 15.01 -12.66 14.02 -13 13 C-11.21188257 11.01752198 -9.41974481 9.03896272 -7.625 7.0625 C-7.11710938 6.49853516 -6.60921875 5.93457031 -6.0859375 5.35351562 C-2.2265625 1.11328125 -2.2265625 1.11328125 0 0 Z " fill="#25C65C" transform="translate(522,354)"/>
<path d="M0 0 C0.66 0 1.32 0 2 0 C2 2.64 2 5.28 2 8 C2.33 8 2.66 8 3 8 C3 14.27 3 20.54 3 27 C2.34 27 1.68 27 1 27 C-0.06996173 17.98175113 -0.10234659 9.06335876 0 0 Z " fill="#58BF75" transform="translate(715,328)"/>
<path d="M0 0 C0.91495239 0.04543945 0.91495239 0.04543945 1.84838867 0.09179688 C4.62803167 0.22912841 7.40776317 0.36458162 10.1875 0.5 C11.14720703 0.54769531 12.10691406 0.59539062 13.09570312 0.64453125 C14.02705078 0.68964844 14.95839844 0.73476563 15.91796875 0.78125 C17.19837036 0.8440918 17.19837036 0.8440918 18.50463867 0.90820312 C21.00557165 1.00020496 23.49762205 1.0156766 26 1 C22.61909479 4.38090521 18.29567997 4.16997372 13.6875 4.25 C8.47059423 4.22172409 4.73003943 3.14190465 0 1 C0 0.67 0 0.34 0 0 Z " fill="#42AB67" transform="translate(524,288)"/>
<path d="M0 0 C1.79296875 0.12890625 1.79296875 0.12890625 4 1 C5.73828125 3.65234375 5.73828125 3.65234375 7.3125 6.9375 C7.84488281 8.01902344 8.37726563 9.10054687 8.92578125 10.21484375 C9.28027344 11.13394531 9.63476562 12.05304687 10 13 C9 15 9 15 7 16 C5.82845707 13.71070947 4.66261926 11.41881638 3.5 9.125 C3.16613281 8.47402344 2.83226562 7.82304688 2.48828125 7.15234375 C0 2.2265625 0 2.2265625 0 0 Z " fill="#284439" transform="translate(59,529)"/>
<path d="M0 0 C0.33 0 0.66 0 1 0 C0.9175 0.70125 0.835 1.4025 0.75 2.125 C1.08038414 5.92441765 2.81996447 7.93432503 5 11 C5 11.66 5 12.32 5 13 C5.66 13 6.32 13 7 13 C7 14.98 7 16.96 7 19 C5.64843325 17.34808509 4.320238 15.67705908 3 14 C2.53335938 13.44570313 2.06671875 12.89140625 1.5859375 12.3203125 C-2.02876631 7.77669039 -2.02876631 7.77669039 -1.875 3.625 C-1 1 -1 1 0 0 Z " fill="#3E8B70" transform="translate(69,540)"/>
<path d="M0 0 C5.69139902 1.09698167 10.74567937 2.54053077 16 5 C13 7 13 7 10.3125 6.875 C6.20802301 5.79079853 2.7127059 4.02596896 -1 2 C-0.67 1.34 -0.34 0.68 0 0 Z " fill="#289535" transform="translate(463,48)"/>
<path d="M0 0 C2.6777283 2.43503389 4.42464854 5.11051911 6.3125 8.1875 C9.31354929 12.98917886 12.51252579 17.54165385 16 22 C13.5841969 21.61637462 12.27766666 21.27185165 10.5078125 19.5390625 C0 4.99435028 0 4.99435028 0 0 Z " fill="#3F7E68" transform="translate(183,660)"/>
<path d="M0 0 C0.33 0 0.66 0 1 0 C2.41167611 8.91732038 2.44611151 15.48147438 -3 23 C-3.66 23.33 -4.32 23.66 -5 24 C-4.382058 21.290562 -3.61150055 19.09350129 -2.5 16.5 C-0.43081857 11.17059611 -0.27358202 5.66031758 0 0 Z " fill="#21AF47" transform="translate(567,253)"/>
<path d="M0 0 C0.99 0.33 1.98 0.66 3 1 C2.45730469 1.39832031 1.91460938 1.79664063 1.35546875 2.20703125 C0.64003906 2.73683594 -0.07539062 3.26664062 -0.8125 3.8125 C-1.87404297 4.59560547 -1.87404297 4.59560547 -2.95703125 5.39453125 C-4.99937707 6.92738307 -4.99937707 6.92738307 -6.609375 8.6484375 C-8.6181102 10.60074755 -10.24350188 10.79830502 -13 11 C-15.3125 10.0625 -15.3125 10.0625 -17 9 C-15.73160474 8.49384702 -14.46016898 7.99530901 -13.1875 7.5 C-12.12595703 7.08234375 -12.12595703 7.08234375 -11.04296875 6.65625 C-9 6 -9 6 -6 6 C-6 5.34 -6 4.68 -6 4 C-3.1875 1.8125 -3.1875 1.8125 0 0 Z " fill="#219C4A" transform="translate(558,279)"/>
<path d="M0 0 C0.33 0 0.66 0 1 0 C1.33 7.26 1.66 14.52 2 22 C1.34 22 0.68 22 0 22 C-0.33 22.66 -0.66 23.32 -1 24 C-1.10466648 15.92905177 -1.03387512 8.0125322 0 0 Z " fill="#4E8F75" transform="translate(857,515)"/>
<path d="M0 0 C-2.58926331 2.58926331 -4.02705279 2.37398043 -7.625 2.625 C-8.62789062 2.69976562 -9.63078125 2.77453125 -10.6640625 2.8515625 C-11.82035156 2.92503906 -11.82035156 2.92503906 -13 3 C-13 3.66 -13 4.32 -13 5 C-13.99 5 -14.98 5 -16 5 C-16 4.34 -16 3.68 -16 3 C-16.99 2.67 -17.98 2.34 -19 2 C-16.77376199 1.46678738 -14.54384996 0.94889881 -12.3125 0.4375 C-11.07113281 0.14746094 -9.82976562 -0.14257812 -8.55078125 -0.44140625 C-5.23888546 -0.96241956 -3.18139847 -0.91852996 0 0 Z " fill="#2FCA64" transform="translate(256,138)"/>
<path d="M0 0 C-2.99628539 2.99628539 -6.58493471 2.7249286 -10.625 3.125 C-11.42679687 3.21136719 -12.22859375 3.29773437 -13.0546875 3.38671875 C-15.03563635 3.59896327 -17.01772718 3.80049931 -19 4 C-19 3.01 -19 2.02 -19 1 C-16.96044851 0.63384906 -14.91821752 0.28260721 -12.875 -0.0625 C-11.73804688 -0.25972656 -10.60109375 -0.45695312 -9.4296875 -0.66015625 C-6.0246108 -0.99756134 -3.32821869 -0.72330588 0 0 Z " fill="#40D657" transform="translate(423,46)"/>
<path d="M0 0 C-3.16890573 3.16890573 -7.28375243 3.87570994 -11.5 5.1875 C-12.82064453 5.61579102 -12.82064453 5.61579102 -14.16796875 6.05273438 C-15.00972656 6.31763672 -15.85148438 6.58253906 -16.71875 6.85546875 C-17.49154297 7.09934326 -18.26433594 7.34321777 -19.06054688 7.59448242 C-21 8 -21 8 -23 7 C-22 5 -22 5 -18.61328125 3.7109375 C-17.18224112 3.25748583 -15.74848597 2.81253691 -14.3125 2.375 C-13.60416016 2.14554688 -12.89582031 1.91609375 -12.16601562 1.6796875 C-7.98832391 0.38356154 -4.42490647 -0.26479755 0 0 Z " fill="#1E9464" transform="translate(682,750)"/>
<path d="M0 0 C0.33 0 0.66 0 1 0 C1 4.95 1 9.9 1 15 C0.34 15 -0.32 15 -1 15 C-1 19.95 -1 24.9 -1 30 C-1.33 30 -1.66 30 -2 30 C-2.39755352 8.99082569 -2.39755352 8.99082569 0 0 Z " fill="#39BC69" transform="translate(568,380)"/>
<path d="M0 0 C2 2 2 2 2.13525391 4.33837891 C2.08288574 5.29147949 2.03051758 6.24458008 1.9765625 7.2265625 C1.925 8.2578125 1.8734375 9.2890625 1.8203125 10.3515625 C1.75585938 11.43179687 1.69140625 12.51203125 1.625 13.625 C1.56828125 14.71296875 1.5115625 15.8009375 1.453125 16.921875 C1.3113698 19.61522387 1.15993358 22.3076793 1 25 C0.67 25 0.34 25 0 25 C-1.33257403 8.29157175 -1.33257403 8.29157175 0 0 Z " fill="#5B9C7F" transform="translate(102,427)"/>
<path d="M0 0 C0.99 0.33 1.98 0.66 3 1 C0.03 7.27 -2.94 13.54 -6 20 C-6.66 20 -7.32 20 -8 20 C-7.34 17.36 -6.68 14.72 -6 12 C-5.34 12 -4.68 12 -4 12 C-3.67 10.02 -3.34 8.04 -3 6 C-2.34 6 -1.68 6 -1 6 C-0.67 4.02 -0.34 2.04 0 0 Z " fill="#239466" transform="translate(116,392)"/>
<path d="M0 0 C0.81404297 0.61488281 0.81404297 0.61488281 1.64453125 1.2421875 C2.35996094 1.78101563 3.07539062 2.31984375 3.8125 2.875 C4.52019531 3.40867187 5.22789062 3.94234375 5.95703125 4.4921875 C7.60456297 5.70814781 9.29624211 6.86416141 11 8 C11 8.66 11 9.32 11 10 C8.875 10.375 8.875 10.375 6 10 C3.62772144 8.29995963 1.62254782 6.43103384 0 4 C0 2.68 0 1.36 0 0 Z " fill="#25C15F" transform="translate(516,278)"/>
<path d="M0 0 C0.33 0 0.66 0 1 0 C4.35416667 14.61458333 4.35416667 14.61458333 2 20.5 C1.67 20.995 1.34 21.49 1 22 C-0.17700048 17.37540756 -0.11408412 12.92133538 -0.0625 8.1875 C-0.05573242 7.00510742 -0.05573242 7.00510742 -0.04882812 5.79882812 C-0.03711312 3.86585239 -0.01917998 1.93291607 0 0 Z " fill="#0E5F3F" transform="translate(115,618)"/>
<path d="M0 0 C-0.5625 1.8125 -0.5625 1.8125 -2 4 C-3.59776471 4.73230883 -5.20383606 5.4521388 -6.84765625 6.07421875 C-11.13771723 7.91948999 -15.04117992 10.53868128 -19 13 C-17.51697865 8.24560803 -13.56174619 6.58075903 -9.5 4.25 C-8.81035156 3.83878906 -8.12070313 3.42757812 -7.41015625 3.00390625 C-2.29054194 0 -2.29054194 0 0 0 Z " fill="#1DC058" transform="translate(211,150)"/>
<path d="M0 0 C7.42857143 1 7.42857143 1 11 2 C11 2.66 11 3.32 11 4 C12.98 4.66 14.96 5.32 17 6 C16.67 6.66 16.34 7.32 16 8 C14.58208592 7.54554036 13.16571954 7.08625056 11.75 6.625 C10.96109375 6.36976562 10.1721875 6.11453125 9.359375 5.8515625 C7.13372042 5.04826333 5.09068328 4.10288338 3 3 C3 2.34 3 1.68 3 1 C2.01 0.67 1.02 0.34 0 0 Z " fill="#267931" transform="translate(444,106)"/>
<path d="M0 0 C-1 2 -1 2 -4.4921875 3.32421875 C-5.95056557 3.78679388 -7.41166189 4.24086376 -8.875 4.6875 C-9.97521484 5.04424805 -9.97521484 5.04424805 -11.09765625 5.40820312 C-16.62530941 7.12489686 -16.62530941 7.12489686 -20 6 C-17 4 -17 4 -14 4 C-14 3.34 -14 2.68 -14 2 C-4.58997722 -0.29612756 -4.58997722 -0.29612756 0 0 Z " fill="#30BD4F" transform="translate(417,107)"/>
<path d="M0 0 C4.87305969 4.29975855 7.8200442 9.37224317 11 15 C8.04446918 14.66652197 7.10016251 14.1117667 5.078125 11.85546875 C4.47484375 10.97503906 3.8715625 10.09460938 3.25 9.1875 C2.63640625 8.31480469 2.0228125 7.44210938 1.390625 6.54296875 C0 4 0 4 0 0 Z " fill="#23922F" transform="translate(527,90)"/>
<path d="M0 0 C0.66 0.33 1.32 0.66 2 1 C0.43820369 6.98688584 -1.05041635 12.15857489 -5 17 C-5.66 17 -6.32 17 -7 17 C-6.72414063 16.47921875 -6.44828125 15.9584375 -6.1640625 15.421875 C-4.72316905 12.42404298 -3.55640895 9.35897091 -2.375 6.25 C-1.70597656 4.49429688 -1.70597656 4.49429688 -1.0234375 2.703125 C-0.68570312 1.81109375 -0.34796875 0.9190625 0 0 Z " fill="#1FAC48" transform="translate(339,178)"/>
<path d="M0 0 C0.66 0 1.32 0 2 0 C2 0.66 2 1.32 2 2 C2.66 2.33 3.32 2.66 4 3 C3.67 3.99 3.34 4.98 3 6 C3.64808564 7.34246312 4.31822584 8.67432801 5 10 C5.38290462 11.99110401 5.72604615 13.99100513 6 16 C5.01 16 4.02 16 3 16 C2.30178583 13.89936424 1.61675528 11.79434263 0.9375 9.6875 C0.55464844 8.51574219 0.17179687 7.34398437 -0.22265625 6.13671875 C-1 3 -1 3 0 0 Z " fill="#2EC94D" transform="translate(495,144)"/>
<path d="M0 0 C1.859375 0.6171875 1.859375 0.6171875 4 2 C5.265625 4.8203125 5.265625 4.8203125 6.25 8.125 C6.58515625 9.22070312 6.9203125 10.31640625 7.265625 11.4453125 C7.62914062 12.70988281 7.62914062 12.70988281 8 14 C4.60978687 12.58100357 4.08652021 12.16983596 2.3125 8.6875 C1.26648273 5.74868957 0.46545731 3.07201827 0 0 Z " fill="#2CAC3E" transform="translate(545,123)"/>
<path d="M0 0 C0.33 0 0.66 0 1 0 C1.0271045 3.04172719 1.04688964 6.08320997 1.0625 9.125 C1.07087891 9.9809375 1.07925781 10.836875 1.08789062 11.71875 C1.10538306 16.26678411 0.93192358 20.52383164 0 25 C-0.33 25 -0.66 25 -1 25 C-0.67 20.38 -0.34 15.76 0 11 C-0.66 11 -1.32 11 -2 11 C-2 9.02 -2 7.04 -2 5 C-1.34 5 -0.68 5 0 5 C0 3.35 0 1.7 0 0 Z " fill="#158835" transform="translate(717,317)"/>
<path d="M0 0 C1.8125 0.1875 1.8125 0.1875 4 1 C5.03013277 2.64821244 6.03114628 4.31503702 7 6 C7.99 6.33 8.98 6.66 10 7 C14 11.45714286 14 11.45714286 14 14 C10.65876526 12.5466378 8.43458035 10.70404484 5.875 8.125 C5.19179688 7.44695313 4.50859375 6.76890625 3.8046875 6.0703125 C2.09819096 4.11264331 1.03057459 2.3692591 0 0 Z " fill="#2C8262" transform="translate(334,818)"/>
<path d="M0 0 C1.32 0.33 2.64 0.66 4 1 C1.56528902 2.65009317 -0.87255165 4.29518398 -3.3125 5.9375 C-4.00279297 6.40607422 -4.69308594 6.87464844 -5.40429688 7.35742188 C-6.40493164 8.0293457 -6.40493164 8.0293457 -7.42578125 8.71484375 C-8.03848877 9.12855225 -8.65119629 9.54226074 -9.2824707 9.96850586 C-11 11 -11 11 -14 12 C-14.33 11.34 -14.66 10.68 -15 10 C-14.01 10 -13.02 10 -12 10 C-12 9.34 -12 8.68 -12 8 C-10.35 7.67 -8.7 7.34 -7 7 C-7 6.34 -7 5.68 -7 5 C-6.01 5 -5.02 5 -4 5 C-3.67 4.01 -3.34 3.02 -3 2 C-2.01 2 -1.02 2 0 2 C0 1.34 0 0.68 0 0 Z " fill="#199160" transform="translate(762,706)"/>
<path d="M0 0 C2.97 0.495 2.97 0.495 6 1 C6 3.31 6 5.62 6 8 C5.01 7.67 4.02 7.34 3 7 C2.87625 8.27875 2.7525 9.5575 2.625 10.875 C2.25 14.75 2.25 14.75 0 17 C0.16757813 16.02417969 0.33515625 15.04835938 0.5078125 14.04296875 C0.71148437 12.77066406 0.91515625 11.49835937 1.125 10.1875 C1.33382812 8.92292969 1.54265625 7.65835938 1.7578125 6.35546875 C2.35428059 2.86716423 2.35428059 2.86716423 0 0 Z " fill="#105A3E" transform="translate(116,600)"/>
<path d="M0 0 C0.99 0 1.98 0 3 0 C4.08056059 3.97159686 3.85815614 6.42553157 2.5625 10.3125 C2.27503906 11.19550781 1.98757813 12.07851563 1.69140625 12.98828125 C1.34916016 13.98408203 1.34916016 13.98408203 1 15 C0.34 15 -0.32 15 -1 15 C-0.9278125 14.08476563 -0.855625 13.16953125 -0.78125 12.2265625 C-0.6884375 11.03804687 -0.595625 9.84953125 -0.5 8.625 C-0.4071875 7.44164062 -0.314375 6.25828125 -0.21875 5.0390625 C-0.09804546 3.36213157 0 1.68126944 0 0 Z " fill="#47A380" transform="translate(324,574)"/>
<path d="M0 0 C3.40312738 1.05875074 6.01353231 2.00902154 9 4 C9 4.66 9 5.32 9 6 C10.98 6.66 12.96 7.32 15 8 C15 8.99 15 9.98 15 11 C12.68085795 9.74018219 10.37016084 8.46803871 8.0625 7.1875 C7.40314453 6.83107422 6.74378906 6.47464844 6.06445312 6.10742188 C1.11328125 3.33984375 1.11328125 3.33984375 0 0 Z " fill="#278362" transform="translate(178,746)"/>
<path d="M0 0 C0.66 0 1.32 0 2 0 C2 1.98 2 3.96 2 6 C2.66 4.68 3.32 3.36 4 2 C4.6875 3.6875 4.6875 3.6875 5 6 C3.5625 8.75 3.5625 8.75 2 11 C1.67 10.34 1.34 9.68 1 9 C0.34 9 -0.32 9 -1 9 C-1.09765625 2.84765625 -1.09765625 2.84765625 -1 1 C-0.67 0.67 -0.34 0.34 0 0 Z " fill="#368467" transform="translate(115,609)"/>
<path d="M0 0 C3.0478881 1.44739891 5.82138128 3.12466976 8.625 5 C9.40101563 5.515625 10.17703125 6.03125 10.9765625 6.5625 C13 8 13 8 15 10 C8.84962603 9.87186721 6.00868247 7.78588027 1.50390625 3.69140625 C0 2 0 2 0 0 Z " fill="#599C7F" transform="translate(269,382)"/>
<path d="M0 0 C-2.8601731 2.8601731 -6.39184838 3.77745477 -10.125 5.125 C-10.87910156 5.40214844 -11.63320313 5.67929687 -12.41015625 5.96484375 C-14.27163121 6.64817 -16.13558602 7.32473389 -18 8 C-18 7.01 -18 6.02 -18 5 C-17.154375 4.731875 -16.30875 4.46375 -15.4375 4.1875 C-11.93464353 3.03846297 -11.93464353 3.03846297 -8.4375 1.375 C-5.25144948 0.10057979 -3.3631346 -0.30573951 0 0 Z " fill="#229869" transform="translate(702,742)"/>
<path d="M0 0 C0.33 0 0.66 0 1 0 C1 4.62 1 9.24 1 14 C0.34 14 -0.32 14 -1 14 C-1 15.65 -1 17.3 -1 19 C-1.33 19 -1.66 19 -2 19 C-2.21432579 12.35590042 -1.51233701 6.46794133 0 0 Z " fill="#71C68B" transform="translate(718,303)"/>
<path d="M0 0 C0 0.66 0 1.32 0 2 C-5.89893243 3.79074734 -9.93179132 4.08360869 -16 3 C-16 2.67 -16 2.34 -16 2 C-10.54538831 0.61470179 -5.63281599 -0.2396943 0 0 Z " fill="#41CF69" transform="translate(663,274)"/>
<path d="M0 0 C2.83602371 0.39389218 4.64759392 0.72716949 6.9375 2.5 C9.56046587 4.40761154 11.81678862 4.63827143 15 5 C14.67 5.66 14.34 6.32 14 7 C8.29290936 6.53411505 4.84060277 5.06242216 0 2 C0 1.34 0 0.68 0 0 Z " fill="#189542" transform="translate(310,200)"/>
<path d="M0 0 C5.08536612 0.74784796 9.46376439 2.20772512 12.875 6.1875 C13.24625 6.785625 13.6175 7.38375 14 8 C12.3125 8.6875 12.3125 8.6875 10 9 C7.3125 7.75 7.3125 7.75 5 6 C4.67 5.01 4.34 4.02 4 3 C2.00334686 1.31461399 2.00334686 1.31461399 0 0 Z " fill="#154B1B" transform="translate(455,109)"/>
<path d="M0 0 C-2.60258324 0.83857688 -5.20685647 1.67103344 -7.8125 2.5 C-8.55048828 2.73847656 -9.28847656 2.97695313 -10.04882812 3.22265625 C-13.13255196 4.19940136 -15.74495809 5 -19 5 C-19 4.34 -19 3.68 -19 3 C-17.25014646 2.52029877 -15.50011109 2.04126076 -13.75 1.5625 C-12.77546875 1.29566406 -11.8009375 1.02882813 -10.796875 0.75390625 C-9.41242188 0.38072266 -9.41242188 0.38072266 -8 0 C-6.95585937 -0.32677734 -6.95585937 -0.32677734 -5.890625 -0.66015625 C-3.65203765 -1.06254695 -2.14656554 -0.6899675 0 0 Z " fill="#22976B" transform="translate(488,850)"/>
<path d="M0 0 C0.66 0.33 1.32 0.66 2 1 C-3.48136179 5.12480746 -8.19603711 8.66878987 -15 10 C-12.38221206 7.0447272 -9.32416665 5.24167273 -5.9375 3.25 C-4.87402344 2.61578125 -3.81054688 1.9815625 -2.71484375 1.328125 C-1.81894531 0.88984375 -0.92304688 0.4515625 0 0 Z " fill="#4BA786" transform="translate(303,610)"/>
<path d="M0 0 C3.70861858 2.6350711 5.9520814 4.49395002 7 9 C6.625 12.8125 6.625 12.8125 6 16 C5.67 16 5.34 16 5 16 C4.01 11.71 3.02 7.42 2 3 C1.34 3 0.68 3 0 3 C0 2.01 0 1.02 0 0 Z " fill="#209641" transform="translate(851,200)"/>
<path d="M0 0 C0.99 0.66 1.98 1.32 3 2 C1.63875 3.11375 1.63875 3.11375 0.25 4.25 C-2.3069423 6.37674584 -4.69110193 8.60229816 -7 11 C-7.33 10.01 -7.66 9.02 -8 8 C-5.36 5.36 -2.72 2.72 0 0 Z " fill="#21C160" transform="translate(177,173)"/>
<path d="M0 0 C2.5112418 2.32522389 4.72789898 4.79234784 6.8125 7.5 C7.25207031 8.0671875 7.69164062 8.634375 8.14453125 9.21875 C9 11 9 11 8.63671875 13.21875 C8.42660156 13.8065625 8.21648437 14.394375 8 15 C7.731875 14.360625 7.46375 13.72125 7.1875 13.0625 C6.11332248 10.66868314 6.11332248 10.66868314 3 10 C3.66 10 4.32 10 5 10 C4.6390625 9.44570313 4.278125 8.89140625 3.90625 8.3203125 C3.4421875 7.59585938 2.978125 6.87140625 2.5 6.125 C2.0359375 5.40570312 1.571875 4.68640625 1.09375 3.9453125 C0 2 0 2 0 0 Z " fill="#168B5D" transform="translate(316,793)"/>
<path d="M0 0 C4.83256305 0.41421969 6.82679218 2.46413986 10 6 C9.01 6.33 8.02 6.66 7 7 C5.64082143 6.03542166 4.30915279 5.03145371 3 4 C0.85266073 3.29485154 0.85266073 3.29485154 -1 3 C-0.67 2.01 -0.34 1.02 0 0 Z " fill="#107B48" transform="translate(192,282)"/>
<path d="M0 0 C0.33 0.99 0.66 1.98 1 3 C-0.43359375 5.04296875 -0.43359375 5.04296875 -2.4375 7.1875 C-3.09621094 7.90292969 -3.75492188 8.61835937 -4.43359375 9.35546875 C-5.20896484 10.16951172 -5.20896484 10.16951172 -6 11 C-6.99 10.67 -7.98 10.34 -9 10 C-7.625 8 -7.625 8 -6 6 C-5.34 6 -4.68 6 -4 6 C-3.71125 5.38125 -3.4225 4.7625 -3.125 4.125 C-2 2 -2 2 0 0 Z " fill="#1FAE78" transform="translate(733,642)"/>
<path d="M0 0 C3.21524305 1.40844718 5.32183868 3.10344786 7.75 5.625 C8.67039063 6.57246094 8.67039063 6.57246094 9.609375 7.5390625 C10.29773438 8.26222656 10.29773438 8.26222656 11 9 C10.34 9.66 9.68 10.32 9 11 C7.49403892 9.54782324 5.99537896 8.08807139 4.5 6.625 C3.6646875 5.81289063 2.829375 5.00078125 1.96875 4.1640625 C0 2 0 2 0 0 Z " fill="#18704F" transform="translate(131,534)"/>
<path d="M0 0 C0.66 0 1.32 0 2 0 C0.6744419 3.62276315 -0.94346955 6.63505348 -3.125 9.8125 C-3.66382813 10.60269531 -4.20265625 11.39289063 -4.7578125 12.20703125 C-5.37269531 13.09455078 -5.37269531 13.09455078 -6 14 C-6.33 13.01 -6.66 12.02 -7 11 C-5.63671875 8.30078125 -5.63671875 8.30078125 -3.6875 5.3125 C-3.05199219 4.31863281 -2.41648437 3.32476562 -1.76171875 2.30078125 C-1.18035156 1.54152344 -0.59898437 0.78226563 0 0 Z " fill="#1BA93D" transform="translate(361,139)"/>
<path d="M0 0 C0.598125 0.45375 1.19625 0.9075 1.8125 1.375 C3.50590652 2.63295913 5.24477086 3.82984724 7 5 C6.67 6.65 6.34 8.3 6 10 C2.46413986 6.82679218 0.41421969 4.83256305 0 0 Z " fill="#429275" transform="translate(151,718)"/>
<path d="M0 0 C4 1 4 1 5.08203125 2.7421875 C5.32308594 3.44601562 5.56414062 4.14984375 5.8125 4.875 C6.06644531 5.57367187 6.32039062 6.27234375 6.58203125 6.9921875 C7 9 7 9 6 12 C4.02 8.04 2.04 4.08 0 0 Z " fill="#116B48" transform="translate(134,691)"/>
<path d="M0 0 C0 3.9967284 -1.51424049 5.4409151 -3.875 8.625 C-4.59429688 9.60726562 -5.31359375 10.58953125 -6.0546875 11.6015625 C-8 14 -8 14 -10 15 C-8.59601721 10.89889238 -6.62912962 8.01910841 -3.875 4.6875 C-3.15054688 3.80449219 -2.42609375 2.92148437 -1.6796875 2.01171875 C-1.12539063 1.34785156 -0.57109375 0.68398438 0 0 Z " fill="#5BA48A" transform="translate(818,651)"/>
<path d="M0 0 C0.66 0 1.32 0 2 0 C2.91297308 4.97063121 2.91297308 9.02936879 2 14 C1.34 14 0.68 14 0 14 C0 9.38 0 4.76 0 0 Z " fill="#13B147" transform="translate(566,373)"/>
<path d="M0 0 C0.33 0 0.66 0 1 0 C1.22226864 1.76913824 1.42733873 3.54044371 1.625 5.3125 C1.74101563 6.29863281 1.85703125 7.28476562 1.9765625 8.30078125 C2 11 2 11 0 14 C-1 13 -1 13 -1.1328125 10.3125 C-1.13023437 9.219375 -1.12765625 8.12625 -1.125 7 C-1.12757813 5.906875 -1.13015625 4.81375 -1.1328125 3.6875 C-1 1 -1 1 0 0 Z " fill="#13C14D" transform="translate(629,320)"/>
<path d="M0 0 C0.66 0 1.32 0 2 0 C0.43358249 4.30764815 -1.68336156 8.06171464 -4 12 C-4.66 11.67 -5.32 11.34 -6 11 C-4.74809374 6.51400257 -3.20614467 3.40652872 0 0 Z " fill="#1DAE43" transform="translate(352,153)"/>
<path d="M0 0 C0.66 0 1.32 0 2 0 C4.46735884 2.46735884 4.9072384 4.72171521 6 8 C5.34 8.66 4.68 9.32 4 10 C0 4.5 0 4.5 0 0 Z " fill="#2E5F3A" transform="translate(484,133)"/>
<path d="M0 0 C3.91258965 5.86888448 4.15564623 9.18168727 3 16 C2.67 16 2.34 16 2 16 C0.80911014 10.61972975 -0.2919519 5.54708616 0 0 Z " fill="#1D5E47" transform="translate(45,478)"/>
<path d="M0 0 C5.75 0.875 5.75 0.875 8 2 C7.34 3.32 6.68 4.64 6 6 C3.69 5.01 1.38 4.02 -1 3 C-0.67 2.01 -0.34 1.02 0 0 Z " fill="#209245" transform="translate(546,352)"/>
<path d="M0 0 C-3.50270401 3.50270401 -7.58011525 3.05580639 -12.3125 3.0625 C-13.8750573 3.04653226 -15.43759968 3.02730408 -17 3 C-17 2.67 -17 2.34 -17 2 C-11.16200408 0.30167391 -6.06892629 -0.25287193 0 0 Z " fill="#88C29C" transform="translate(550,289)"/>
<path d="M0 0 C0.66 0 1.32 0 2 0 C2.82622671 5.60563042 3.06795656 10.42289352 2 16 C1.67 16 1.34 16 1 16 C0.08342019 10.61509359 -0.11138159 5.45769811 0 0 Z " fill="#28B743" transform="translate(560,175)"/>
<path d="M0 0 C0.99 0.33 1.98 0.66 3 1 C-0.33333333 4.33333333 -3.66666667 7.66666667 -7 11 C-6.40716379 7.60807637 -5.23256811 5.7892243 -2.9375 3.25 C-2.38964844 2.63640625 -1.84179688 2.0228125 -1.27734375 1.390625 C-0.85582031 0.93171875 -0.43429687 0.4728125 0 0 Z " fill="#0BA266" transform="translate(723,653)"/>
<path d="M0 0 C0.99 0.33 1.98 0.66 3 1 C0.36 3.64 -2.28 6.28 -5 9 C-5.33 7.68 -5.66 6.36 -6 5 C-4.68 4.67 -3.36 4.34 -2 4 C-2 3.01 -2 2.02 -2 1 C-1.34 0.67 -0.68 0.34 0 0 Z " fill="#309F71" transform="translate(135,370)"/>
<path d="M0 0 C0.66 0 1.32 0 2 0 C3.7265625 1.8984375 3.7265625 1.8984375 5.625 4.375 C6.25664062 5.18710937 6.88828125 5.99921875 7.5390625 6.8359375 C9 9 9 9 9 11 C7.0625 10.25 7.0625 10.25 5 9 C4.25 6.875 4.25 6.875 4 5 C3.34 5 2.68 5 2 5 C1.34 3.35 0.68 1.7 0 0 Z " fill="#387961" transform="translate(363,762)"/>
<path d="M0 0 C1.32 0.33 2.64 0.66 4 1 C3.67 2.65 3.34 4.3 3 6 C2.34 6 1.68 6 1 6 C1 7.98 1 9.96 1 12 C0.67 12 0.34 12 0 12 C0 8.04 0 4.08 0 0 Z " fill="#0A6E3D" transform="translate(854,539)"/>
<path d="M0 0 C0.89203125 0.11085938 1.7840625 0.22171875 2.703125 0.3359375 C3.37859375 0.43132812 4.0540625 0.52671875 4.75 0.625 C1.2013865 2.99074234 0.1735475 2.73365265 -3.9375 2.25 C-5.42830078 2.08371094 -5.42830078 2.08371094 -6.94921875 1.9140625 C-7.70847656 1.81867188 -8.46773437 1.72328125 -9.25 1.625 C-5.9353333 -0.40407167 -3.8184021 -0.50242133 0 0 Z " fill="#086E38" transform="translate(241.25,296.375)"/>
<path d="M0 0 C3.91211733 1.15585285 6.8745041 2.35534962 10 5 C8.4375 5.75 8.4375 5.75 6 6 C3.49713591 4.86915563 1.32992278 3.47860484 -1 2 C-0.67 1.34 -0.34 0.68 0 0 Z " fill="#188021" transform="translate(479,54)"/>
<path d="M0 0 C3.08089673 2.77280706 4.68775452 5.06326356 6 9 C5.01 9 4.02 9 3 9 C0.50022457 5.66696609 0 4.26696398 0 0 Z " fill="#639F88" transform="translate(315,794)"/>
<path d="M0 0 C2.2477975 2.05233685 3.0022242 3.00667261 4 6 C4.66 6.33 5.32 6.66 6 7 C5.01 8.32 4.02 9.64 3 11 C1.68 7.7 0.36 4.4 -1 1 C-0.67 0.67 -0.34 0.34 0 0 Z " fill="#1D6347" transform="translate(142,702)"/>
<path d="M0 0 C6.42857143 4.14285714 6.42857143 4.14285714 9 7 C3.53571429 6.39285714 3.53571429 6.39285714 1.125 4.625 C0 3 0 3 0 0 Z " fill="#0E6C3B" transform="translate(289,319)"/>
<path d="M0 0 C3.25543229 0.34879632 4.01873107 1.02133261 6.25 3.5625 C7.11625 4.7690625 7.11625 4.7690625 8 6 C4.65626525 5.44271087 1.96687001 4.64826111 -1 3 C-0.67 2.01 -0.34 1.02 0 0 Z " fill="#2BA743" transform="translate(468,112)"/>
<path d="M0 0 C0.66 0 1.32 0 2 0 C3.65 3.63 5.3 7.26 7 11 C6.01 11 5.02 11 4 11 C3.32880451 9.5437455 2.66318193 8.08492133 2 6.625 C1.62875 5.81289063 1.2575 5.00078125 0.875 4.1640625 C0 2 0 2 0 0 Z " fill="#0B713A" transform="translate(312,346)"/>
<path d="M0 0 C0.66 0 1.32 0 2 0 C2.33 3.3 2.66 6.6 3 10 C2.34 10 1.68 10 1 10 C0.67 6.7 0.34 3.4 0 0 Z " fill="#487A54" transform="translate(495,157)"/>
<path d="M0 0 C2.97 1.65 5.94 3.3 9 5 C9 5.33 9 5.66 9 6 C5.97653399 6.2519555 4.3597993 6.20421041 1.6875 4.6875 C1.130625 4.130625 0.57375 3.57375 0 3 C0 2.01 0 1.02 0 0 Z " fill="#187F20" transform="translate(499,65)"/>
<path d="M0 0 C2.66735273 2.48952921 4.55746343 4.63408134 6 8 C5.34 8.66 4.68 9.32 4 10 C0 4.5 0 4.5 0 0 Z " fill="#518974" transform="translate(308,784)"/>
<path d="M0 0 C3.7952131 1.49097658 5.61042731 3.75700849 8 7 C5 7 5 7 2.3125 4.625 C0 2 0 2 0 0 Z " fill="#23785B" transform="translate(198,683)"/>
<path d="M0 0 C0.33 0 0.66 0 1 0 C1.87557031 6.54311329 2.3548854 11.76647981 0 18 C-0.33 18 -0.66 18 -1 18 C-0.505 9.09 -0.505 9.09 0 0 Z " fill="#067148" transform="translate(45,460)"/>
<path d="M0 0 C0.33 0 0.66 0 1 0 C0.50769231 7.50769231 0.50769231 7.50769231 -2.0625 10 C-3.0215625 10.495 -3.0215625 10.495 -4 11 C-3.52269162 9.5410574 -3.04308958 8.08286504 -2.5625 6.625 C-2.29566406 5.81289063 -2.02882812 5.00078125 -1.75390625 4.1640625 C-1 2 -1 2 0 0 Z " fill="#29B17D" transform="translate(59,376)"/>
<path d="M0 0 C4.24822374 0.47202486 6.19989709 2.96655518 9 6 C7.35 6 5.7 6 4 6 C3.71125 5.195625 3.4225 4.39125 3.125 3.5625 C2.26737432 0.8673532 2.26737432 0.8673532 0 0 Z " fill="#3A7D67" transform="translate(207,692)"/>
<path d="M0 0 C0.99 0 1.98 0 3 0 C4.85776765 3.13498292 5.20140476 5.37471432 5 9 C2.67527795 6.14693203 1.2491742 3.45925163 0 0 Z " fill="#6CA892" transform="translate(114,507)"/>
<path d="M0 0 C0.99 0.33 1.98 0.66 3 1 C-2.625 6 -2.625 6 -6 6 C-6 5.34 -6 4.68 -6 4 C-3.1875 1.8125 -3.1875 1.8125 0 0 Z " fill="#2BAB53" transform="translate(558,279)"/>
<path d="M0 0 C0.66 0 1.32 0 2 0 C1.01 2.97 0.02 5.94 -1 9 C-1.66 9 -2.32 9 -3 9 C-2.01 6.03 -1.02 3.06 0 0 Z " fill="#24AD48" transform="translate(345,165)"/>
<path d="M0 0 C0.99 0.66 1.98 1.32 3 2 C2 3.5 2 3.5 0 5 C-2.71846235 5.27345479 -5.25677199 5.13491285 -8 5 C-8 4.67 -8 4.34 -8 4 C-6.865625 3.71125 -5.73125 3.4225 -4.5625 3.125 C-3.386875 2.75375 -2.21125 2.3825 -1 2 C-0.67 1.34 -0.34 0.68 0 0 Z " fill="#2CC95D" transform="translate(298,132)"/>
<path d="M0 0 C-0.33 0.66 -0.66 1.32 -1 2 C-3.06640625 2.4140625 -3.06640625 2.4140625 -5.5625 2.625 C-6.38878906 2.69976562 -7.21507812 2.77453125 -8.06640625 2.8515625 C-9.02353516 2.92503906 -9.02353516 2.92503906 -10 3 C-8 0 -8 0 -5.5625 -0.75 C-3 -1 -3 -1 0 0 Z " fill="#3DD454" transform="translate(403,49)"/>
<path d="M0 0 C3.33333333 1.66666667 6.66666667 3.33333333 10 5 C9.67 5.66 9.34 6.32 9 7 C6.03 5.35 3.06 3.7 0 2 C0 1.34 0 0.68 0 0 Z " fill="#15724F" transform="translate(359,838)"/>
<path d="M0 0 C0.6875 1.6875 0.6875 1.6875 1 4 C-0.3125 6.75 -0.3125 6.75 -2 9 C-2.66 9 -3.32 9 -4 9 C-2.80100302 5.9168649 -1.52299523 2.93720508 0 0 Z " fill="#1DAD74" transform="translate(69,357)"/>
<path d="M0 0 C2.375 0.25 2.375 0.25 5 1 C6.3125 3.0625 6.3125 3.0625 7 5 C4.11424181 4.60196439 3.17810487 4.20990931 1.25 1.9375 C0.8375 1.298125 0.425 0.65875 0 0 Z " fill="#126320" transform="translate(474,125)"/>
<path d="M0 0 C0.99 0.66 1.98 1.32 3 2 C-0.96 3.98 -0.96 3.98 -5 6 C-5.66 5.34 -6.32 4.68 -7 4 C-4.69 2.68 -2.38 1.36 0 0 Z " fill="#38D253" transform="translate(362,62)"/>
<path d="M0 0 C3.43595166 1.52708963 6.11912454 3.59927045 9 6 C6.1875 5.8125 6.1875 5.8125 3 5 C1.125 2.4375 1.125 2.4375 0 0 Z " fill="#27614C" transform="translate(384,784)"/>
<path d="M0 0 C3.63 0 7.26 0 11 0 C10.67 1.65 10.34 3.3 10 5 C9.34 4.01 8.68 3.02 8 2 C6.03638136 1.42251197 6.03638136 1.42251197 3.875 1.3125 C2.59625 1.209375 1.3175 1.10625 0 1 C0 0.67 0 0.34 0 0 Z " fill="#0E7B4B" transform="translate(298,781)"/>
<path d="M0 0 C0.99 0 1.98 0 3 0 C3.33 0.66 3.66 1.32 4 2 C6.02463255 2.65213292 6.02463255 2.65213292 8 3 C7.67 3.99 7.34 4.98 7 6 C3.535 4.02 3.535 4.02 0 2 C0 1.34 0 0.68 0 0 Z " fill="#247F5D" transform="translate(195,756)"/>
<path d="M0 0 C0.66 0 1.32 0 2 0 C3.06775224 1.96466413 4.06553465 3.96855359 5 6 C4.67 6.66 4.34 7.32 4 8 C2 6.25 2 6.25 0 4 C0 2.68 0 1.36 0 0 Z " fill="#159862" transform="translate(350,744)"/>
<path d="M0 0 C-0.33 0.99 -0.66 1.98 -1 3 C-3.97 2.67 -6.94 2.34 -10 2 C-6.3558226 -0.4294516 -4.28758728 -0.16179575 0 0 Z " fill="#076D43" transform="translate(206,575)"/>
<path d="M0 0 C0.66 0 1.32 0 2 0 C2 1.65 2 3.3 2 5 C0.02 5.99 0.02 5.99 -2 7 C-2.33 6.01 -2.66 5.02 -3 4 C-2.01 4 -1.02 4 0 4 C0 2.68 0 1.36 0 0 Z " fill="#288355" transform="translate(307,385)"/>
<path d="M0 0 C3.43927579 1.2419607 6.25207819 2.55740284 9 5 C9 5.66 9 6.32 9 7 C5.18315774 5.44499019 2.80804268 2.96404505 0 0 Z " fill="#377C60" transform="translate(250,365)"/>
<path d="M0 0 C3.91402949 1.26941497 5.79072873 2.51167694 8 6 C5 6 5 6 3.61328125 4.6875 C2.40885417 3.125 1.20442708 1.5625 0 0 Z " fill="#307F4D" transform="translate(516,281)"/>
<path d="M0 0 C-3.28463659 2.18975773 -6.20696275 2.99806563 -10 4 C-9.67 3.01 -9.34 2.02 -9 1 C-6.04335481 -0.4783226 -3.25770263 -0.06032783 0 0 Z " fill="#2FAB61" transform="translate(251,199)"/>
<path d="M0 0 C0.66 0 1.32 0 2 0 C2.66 2.31 3.32 4.62 4 7 C3.01 7 2.02 7 1 7 C0.67 4.69 0.34 2.38 0 0 Z " fill="#26AA38" transform="translate(554,147)"/>
<path d="M0 0 C0.66 0.33 1.32 0.66 2 1 C-0.25 3.0625 -0.25 3.0625 -3 5 C-5.3125 4.75 -5.3125 4.75 -7 4 C-1.7265625 0.77734375 -1.7265625 0.77734375 0 0 Z " fill="#2BCE47" transform="translate(370,58)"/>
<path d="M0 0 C1.8125 0.1875 1.8125 0.1875 4 1 C5.8125 3.4375 5.8125 3.4375 7 6 C6.67 6.66 6.34 7.32 6 8 C4.9970458 6.85675161 3.99770973 5.71032809 3 4.5625 C2.443125 3.92441406 1.88625 3.28632812 1.3125 2.62890625 C0 1 0 1 0 0 Z " fill="#23674B" transform="translate(334,818)"/>
<path d="M0 0 C0.99 0.33 1.98 0.66 3 1 C1.35 2.98 -0.3 4.96 -2 7 C-2.33 5.68 -2.66 4.36 -3 3 C-2.34 3 -1.68 3 -1 3 C-0.67 2.01 -0.34 1.02 0 0 Z " fill="#26956C" transform="translate(824,641)"/>
<path d="M0 0 C0.66 0 1.32 0 2 0 C1.01 2.97 0.02 5.94 -1 9 C-1.33 9 -1.66 9 -2 9 C-1.125 2.25 -1.125 2.25 0 0 Z " fill="#249369" transform="translate(839,613)"/>
<path d="M0 0 C3.24271506 0.5590888 4.93057424 1.4132178 7 4 C7 4.66 7 5.32 7 6 C3.63279613 4.60667426 2.0140476 3.0210714 0 0 Z " fill="#116D46" transform="translate(99,586)"/>
<path d="M0 0 C3.26954202 0.56371414 4.82575883 1.49962266 7 4 C3 4 3 4 1.25 2.5625 C0 1 0 1 0 0 Z " fill="#28815E" transform="translate(310,550)"/>
<path d="M0 0 C1.32 0.33 2.64 0.66 4 1 C4.33 2.32 4.66 3.64 5 5 C4.01 5.33 3.02 5.66 2 6 C1.34 4.02 0.68 2.04 0 0 Z " fill="#103527" transform="translate(59,529)"/>
<path d="M0 0 C1.5 1.375 1.5 1.375 3 3 C3 3.66 3 4.32 3 5 C2.34 5 1.68 5 1 5 C1.33 6.32 1.66 7.64 2 9 C1.34 9 0.68 9 0 9 C0 6 0 3 0 0 Z " fill="#469475" transform="translate(113,502)"/>
<path d="M0 0 C1.0326802 2.78823655 1.04509293 3.8677274 0.0625 6.75 C-0.288125 7.4925 -0.63875 8.235 -1 9 C-1.66 9 -2.32 9 -3 9 C-2.44271087 5.65626525 -1.64826111 2.96687001 0 0 Z " fill="#21C556" transform="translate(507,370)"/>
<path d="M0 0 C2.375 0.3125 2.375 0.3125 5 1 C5.66 1.99 6.32 2.98 7 4 C5.02 4 3.04 4 1 4 C0.67 2.68 0.34 1.36 0 0 Z " fill="#2F8146" transform="translate(844,196)"/>
<path d="M0 0 C-0.66 0.66 -1.32 1.32 -2 2 C-4.1640625 1.9765625 -4.1640625 1.9765625 -6.625 1.625 C-7.44226563 1.51414063 -8.25953125 1.40328125 -9.1015625 1.2890625 C-9.72804688 1.19367187 -10.35453125 1.09828125 -11 1 C-11 0.67 -11 0.34 -11 0 C-7.01803543 -1.05404945 -4.01804691 -0.84098656 0 0 Z " fill="#30D041" transform="translate(423,46)"/>
</svg>
